<svg xmlns="http://www.w3.org/2000/svg" xmlns:inkscape="http://www.inkscape.org/namespaces/inkscape" xmlns:xlink="http://www.w3.org/1999/xlink" width="1920px" height="1080px">

<g inkscape:groupmode="layer" id="Sun Mar 20 17:26:50 2022">

<g id="Curve.009">  <!-- start Curve.009 -->

  <path id="curva_3D.Curve.009" d="M 596.257,317.2035 L 596.257,317.2035 598.1145,317.3306 599.7316,317.3671 602.0065,317.3972 605.0336,317.4213 608.9072,317.4402 613.7217,317.4542 619.5714,317.4642 626.5504,317.4705 634.7533,317.4739 644.592,317.475 646.7062,317.475 649.4977,317.475 653.1182,317.475 657.4021,317.475 662.1835,317.475 667.2964,317.475 672.5753,317.475 677.8541,317.475 682.9671,317.475 687.7484,317.475 692.0323,317.4749 692.3057,314.675 692.4086,312.3018 692.4686,310.2421 692.5214,307.8422 692.5543,305.843 692.5771,304.0451 692.5961,301.8593 692.6104,300.1796 692.6276,298.1718 692.6454,296.0982 692.6651,293.7976 690.6025,292.0451 689.2757,291.127 688.8603,290.8094 688.431,290.4825 687.9932,290.1505 687.5527,289.8179 687.1151,289.489 685.6949,288.4272 684.1547,287.1735 682.3458,285.7048 680.6085,284.1108 679.4095,283.1588 677.7249,282.2392 674.6981,280.869 672.6921,279.866 670.9503,279.0813 669.446,278.8213 667.9726,278.3526 665.7069,277.3317 663.6741,276.5358 662.1808,276.1088 660.4234,275.769 657.9338,275.2093 656.0736,274.8159 654.4413,274.4571 652.8025,274.1559 651.2957,273.9623 649.686,273.8582 647.7473,273.8162 645.4397,273.8091 643.292,273.8145 641.3398,273.8524 639.7234,273.9493 638.2189,274.133 636.5846,274.4324 634.5786,274.9228 632.5726,275.3526 631.1398,275.7108 628.7162,276.1026 626.595,276.7541 624.6562,277.5422 622.826,278.4052 620.928,278.8815 619.2025,279.4228 617.5995,280.1347 615.7286,280.9891 614.4026,281.6229 612.8887,282.3577 611.1732,283.1997 609.2425,284.1549 608.5322,284.506 607.8195,284.8557 607.1127,285.2 606.4203,285.535 604.3458,286.4213 602.5906,287.3257 601.2921,287.9033 600.1592,288.6522 598.6861,289.9317 597.5397,291.0422 596.2111,292.4326 596.0932,294.5513 596.058,296.6089 596.0353,299.1396 596.0253,301.9833 596.0273,304.9794 596.0408,307.9677 596.0655,310.7875 596.1011,313.2787 596.1468,315.2808 713.1253,471.0423 712.6176,469.7156 712.0897,468.4184 711.5458,467.1606 710.7438,465.4317 709.601,463.2444 708.5064,461.4603 707.4042,460.0955 706.3099,458.8882 705.1749,457.7344 703.5054,456.2372 702.4716,455.6555 702.4716,577.9547 702.4716,700.2538 703.5919,702.4127 710.2144,702.4127 711.5594,702.4117 713.3129,702.4054 714.9159,702.3841 716.977,702.2363 717.2657,701.6499 717.2797,700.7587 717.5635,698.641 717.614,696.15 717.6533,692.1836 717.6834,686.3928 717.7051,678.4285 717.7201,667.9418 717.7292,654.5835 717.7344,638.0046 717.7363,617.856 717.7368,593.7887 717.7351,579.3586 717.7303,565.5009 717.7225,552.3454 717.712,540.0219 717.6991,528.6602 717.6838,518.3902 717.6664,509.3416 717.6472,501.6443 717.6265,495.4282 717.6042,490.823 717.4617,486.839 717.1217,484.335 716.6977,482.45 716.0353,480.4272 715.6413,479.1018 715.2472,477.8123 714.889,476.5227 714.4877,475.1038 714.0644,473.7461 713.6091,472.389 587.3188,456.2897 585.803,457.6392 584.6706,458.781 583.5685,459.9875 582.4498,461.3543 581.3773,463.0697 580.2372,465.2257 579.3336,467.1606 578.7897,468.4184 578.2618,469.7156 577.754,471.0423 577.2703,472.389 576.8148,473.7461 576.3916,475.1038 575.9756,476.5227 575.3936,478.6003 574.8652,480.1765 574.2803,482.1332 573.7466,484.325 573.3784,486.9097 573.275,490.823 573.2529,495.4282 573.2321,501.6443 573.2128,509.3416 573.1956,518.3902 573.1803,528.6602 573.1674,540.0219 573.1569,552.3454 573.149,565.5009 573.1442,579.3586 573.1426,593.7887 573.143,617.856 573.1451,638.0046 573.1501,654.5835 573.1593,667.9418 573.1742,678.4286 573.1959,686.3928 573.2259,692.1836 573.2654,696.15 573.3157,698.6411 573.5523,700.71 573.5981,701.7317 574.0967,702.291 577.4264,702.4043 579.3199,702.4117 580.6682,702.4127 583.5029,702.4127 584.9553,702.4127 587.2874,702.4127 588.4075,700.2542 588.4077,577.9547 588.4077,455.6555 691.301,421.1436 690.6741,419.4959 690.0651,417.8839 689.2234,415.6272 687.7219,411.2312 686.6455,408.2488 685.5688,405.41 684.4821,402.6936 683.3755,400.0786 682.2392,397.5436 681.0636,395.0676 679.8389,392.6295 678.5553,390.208 677.203,387.7821 675.7723,385.3305 674.4114,382.7437 673.2652,381.1675 671.8681,378.875 670.6951,376.8421 669.6965,375.3141 668.9129,374.0033 667.9614,372.3063 667.1257,371.0258 666.2084,369.3824 664.9273,367.3268 664.7643,363.9094 664.2675,361.0674 661.9988,361.2354 660.5073,359.9408 659.6512,358.7778 658.8488,356.8937 656.6102,353.6878 655.413,352.2377 653.9219,351.0153 651.9697,349.5489 650.8821,348.6027 650.038,347.407 649.9773,345.7441 649.3875,344.2949 648.7189,343.1884 647.7114,341.7578 645.4478,339.2813 643.2675,341.6257 641.7,343.8934 640.9255,345.658 640.8248,347.5387 639.4474,349.1118 637.2831,350.7556 636.2353,351.5974 635.1875,352.4861 634.2904,353.5479 633.5488,354.9421 631.9814,357.0794 630.8085,359.3884 629.795,360.5609 628.6138,361.2751 626.6812,361.0655 626.2686,362.4798 626.0728,364.5847 625.952,367.3268 624.6562,369.3466 623.756,371.0139 622.5965,372.8526 621.2863,375.1619 620.2323,376.766 619.3906,378.3018 618.6741,379.5198 617.9683,380.6306 617.6711,380.881 617.1544,381.9727 616.8115,382.6004 615.6294,384.463 614.3936,386.5406 613.3099,388.4033 612.298,390.266 611.3309,392.0929 610.3458,394.0272 609.2079,396.4203 608.4446,398.0434 607.7365,399.5887 607.0728,401.0827 606.4426,402.5521 605.8355,404.0233 605.2404,405.5231 604.6469,407.0778 604.0439,408.7142 603.421,410.4586 602.767,412.3379 601.7039,415.4481 601.0144,417.2033 600.4055,419.1018 599.6174,421.063 598.9379,422.6786 598.4308,423.9377 597.8264,425.4869 597.2532,427.1168 596.6757,428.8451 596.098,430.7794 595.5515,432.6397 595.5369,432.6911 595.0128,434.5262 594.4501,436.4962 594.3964,593.4071 594.3426,750.3179 645.4397,750.3179 696.5367,750.3179 696.4829,593.4071 696.4293,436.4962 695.3279,432.6397 694.8383,430.9227 694.2427,429.0063 693.6831,427.2511 693.101,425.6302 692.4875,424.0272 691.9413,422.6786 460.2034,749.0422 460.2313,750.4642 460.557,753.2779 460.7747,754.5574 464.0314,754.5602 467.6664,754.5633 471.5535,754.5666 475.5667,754.57 479.5798,754.5735 483.4668,754.5768 487.1018,754.5799 490.3586,754.5827 493.1111,754.5851 495.2332,754.5869 496.8407,754.5883 502.3124,754.5939 507.9606,754.6013 513.9402,754.6107 520.1644,754.6217 526.5468,754.6342 533.0006,754.648 539.4391,754.663 545.7759,754.6788 551.9244,754.6954 557.7976,754.7125 563.3091,754.7299 568.3723,754.7475 578.4086,754.7798 588.9531,754.8051 600.1727,754.8231 612.2339,754.8338 625.3035,754.8371 639.5482,754.8328 655.1345,754.821 672.2294,754.8015 690.9992,754.7742 711.6109,754.7391 734.2312,754.6959 759.0266,754.6448 830.0622,754.2289 830.5013,753.0635 830.648,750.4642 830.6758,749.0422 830.6989,747.2207 830.7181,744.9533 830.7341,742.1937 830.7476,738.8956 830.7592,735.0128 830.7698,730.4987 830.7762,726.7297 830.7785,723.278 830.7767,720.1343 830.7706,717.2898 830.7604,714.7353 830.7458,712.4619 830.7267,710.4603 830.7032,708.7216 830.6752,707.2368 830.6241,705.4093 830.5546,703.9854 830.4651,702.4809 830.3576,700.26 830.295,698.5406 830.2482,697.0694 830.2054,695.6749 830.1372,692.8093 830.0873,691.1436 829.8818,688.5496 829.4891,687.7515 829.4333,686.4325 829.3326,684.9654 829.174,683.0104 828.9648,680.6434 828.7126,677.9404 828.4251,674.9773 828.1096,671.8301 827.7735,668.5748 827.4246,665.2873 827.0701,662.0435 826.7175,658.9195 826.3746,655.9912 825.2128,646.4332 824.0807,637.4349 822.9701,628.9411 821.8724,620.8969 820.7789,613.2471 819.6815,605.9366 818.5714,598.9104 817.4402,592.1135 816.2796,585.4906 815.0809,578.9868 813.8358,572.5469 812.5367,566.0033 812.1152,564.0784 811.7394,562.2557 811.3906,560.8451 810.3379,555.5819 809.1356,550.1357 807.845,544.5137 806.4756,538.7519 805.0364,532.886 803.5367,526.9522 801.9857,520.986 800.3924,515.0234 798.7662,509.1003 797.1163,503.2525 795.4517,497.5159 793.7818,491.9264 792.5823,488.0066 791.3611,484.0863 790.1202,480.1704 788.8611,476.2637 787.5856,472.3711 786.2952,468.4974 784.9915,464.6477 783.6763,460.8268 782.3511,457.0395 781.0178,453.2909 779.6776,449.5856 778.3325,445.9288 778.0768,445.2373 777.6106,443.9691 776.8798,441.9708 776.0571,439.7121 775.1877,437.3172 774.317,434.9102 773.4805,432.5912 772.6306,430.2438 771.7651,427.8694 770.9285,425.5884 770.3431,424.002 769.9865,423.041 769.5516,421.5735 768.5939,419.3551 768.0865,418.0182 767.6037,416.7386 767.1396,415.5009 766.3995,413.5496 765.3555,410.6556 764.8987,409.3927 764.4262,408.078 763.9323,406.6958 763.411,405.2306 762.5066,402.7222 761.5703,400.2013 760.6046,397.6737 759.6117,395.145 758.5941,392.6208 757.554,390.1068 756.494,387.6087 755.4163,385.1321 754.3234,382.6828 753.2177,380.2663 752.1014,377.8885 750.977,375.5547 750.6382,374.8564 750.3517,374.0033 749.4921,372.8571 748.5689,370.4741 748.1218,369.5097 747.6776,368.546 747.2422,367.5959 746.6264,365.9795 742.8929,358.0057 739.6557,351.132 736.334,344.3282 732.924,337.588 729.4222,330.9045 725.8248,324.2711 722.1282,317.6811 718.3288,311.1279 714.4226,304.6048 710.4062,298.1051 706.2759,291.6223 702.0281,285.1495 700.7407,283.222 699.5074,281.3879 698.3196,279.6349 697.1692,277.9513 696.0475,276.325 694.9465,274.7442 693.8575,273.1969 692.7723,271.6711 691.6826,270.155 690.5798,268.6365 689.4559,267.1037 688.3023,265.5447 687.3069,264.1049 686.1606,262.4571 685.07,260.9517 686.239,258.6376 687.3071,256.9021 688.0786,255.7038 688.9462,254.3926 689.902,252.981 690.938,251.4812 692.0466,249.9056 693.22,248.2667 697.0443,243.0285 700.8266,237.9693 704.5795,233.074 708.3156,228.3275 712.048,223.7145 715.7894,219.2202 719.5525,214.8292 723.3502,210.5265 727.1949,206.2971 731.0999,202.1255 735.0776,197.997 739.1408,193.8964 742.7787,190.3229 746.3674,186.8944 749.9012,183.6153 753.3745,180.4903 756.7816,177.5241 760.117,174.7212 763.3752,172.0862 766.5504,169.6238 769.637,167.3387 772.6298,165.2354 775.5226,163.3184 778.3101,161.5925 780.3362,160.4124 782.7449,159.0551 785.4547,157.5627 788.3844,155.9781 791.4527,154.3435 794.5778,152.7015 797.6786,151.0945 800.6735,149.565 803.4813,148.1556 806.0203,146.9088 808.2093,145.8669 809.9669,145.0726 811.3409,144.4935 812.7695,143.9226 814.2385,143.3644 815.7335,142.8234 817.2404,142.3043 818.7448,141.8115 820.2326,141.3495 821.6895,140.923 823.1014,140.5365 824.454,140.1944 826.2741,139.7839 829.7308,139.1616 832.0233,138.7318 833.7427,138.5168 835.7487,138.2302 837.7546,137.872 839.4741,137.6213 841.7666,137.2989 844.0591,136.8691 847.0306,136.5255 847.6715,134.8088 847.7636,133.1896 847.7419,131.1198 847.6937,129.0958 847.655,127.6558 847.6132,125.9795 847.5805,124.0093 847.5693,122.1682 847.5814,120.481 847.6344,118.4839 847.7509,116.4153 847.8472,114.3735 847.9099,112.7974 847.9611,111.338 848.0084,109.9318 848.0487,108.3556 848.098,105.8481 848.1243,104.0526 848.1124,102.4877 847.9811,101.1808 847.2145,99.6437 846.722,99.0909 843.9696,98.9311 842.0106,98.9169 840.0471,99.0168 838.4701,99.1501 836.7224,99.3349 834.8225,99.5683 832.7893,99.8477 830.6415,100.1703 828.3978,100.5335 826.0769,100.9346 823.6974,101.3708 821.2783,101.8395 818.8381,102.338 815.2751,103.0921 812.0674,103.7886 809.1483,104.4456 806.4508,105.0812 803.9083,105.7136 801.4541,106.361 799.0212,107.0414 796.5428,107.7732 793.9522,108.5743 791.1827,109.4629 788.1674,110.4573 784.5607,111.6601 782.877,112.296 780.7585,113.1389 779.3169,113.7178 777.7861,114.3397 776.2052,114.9883 774.6142,115.6476 773.0524,116.3015 771.5594,116.9335 770.1749,117.5278 768.9384,118.0682 762.4577,121.0148 756.0625,124.0895 749.7523,127.2921 743.527,130.6228 737.3862,134.0821 731.3299,137.6699 725.3575,141.3862 719.4689,145.2315 713.6639,149.2058 707.9421,153.3093 702.3033,157.5421 696.7472,161.9044 694.4391,163.773 692.1962,165.6214 690.0049,167.462 687.8514,169.3071 685.722,171.1694 683.603,173.061 681.4803,174.9946 679.3406,176.9822 677.1697,179.0366 674.9542,181.17 672.6802,183.3948 670.334,185.7234 667.9882,188.08 665.765,190.3406 663.6492,192.5223 661.6257,194.6413 659.6794,196.7143 657.795,198.7579 655.9575,200.7886 654.1517,202.8232 652.3624,204.8781 650.5743,206.97 648.7726,209.1154 646.7577,211.3765 645.4454,213.0182 644.286,211.7347 642.1068,209.1154 640.305,206.97 638.517,204.8781 636.7277,202.8232 634.9219,200.7886 633.0842,198.7579 631.2,196.7143 629.2536,194.6413 627.2301,192.5223 625.1144,190.3406 622.8911,188.08 620.5453,185.7234 618.1991,183.3948 615.9251,181.17 613.7097,179.0366 611.5389,176.9822 609.399,174.9946 607.2765,173.061 605.1572,171.1694 603.0279,169.3071 600.8744,167.462 598.683,165.6214 596.4402,163.773 594.132,161.9044 588.576,157.5421 582.9373,153.3093 577.2155,149.2057 571.4105,145.2314 565.5219,141.3862 559.5494,137.6697 553.493,134.0821 547.3523,130.6228 541.127,127.292 534.8168,124.0894 528.4216,121.0148 521.941,118.0682 520.7043,117.5278 519.3198,116.9335 517.8268,116.3015 516.265,115.6476 514.6741,114.9883 513.0934,114.3397 511.5624,113.7178 510.1209,113.1389 508.0592,112.296 506.4115,111.687 502.7119,110.4573 499.6966,109.4629 496.9271,108.5743 494.3365,107.7732 491.8582,107.0414 489.4252,106.361 486.971,105.7136 484.4285,105.0812 481.7311,104.4456 478.8119,103.7886 475.6042,103.0921 472.0411,102.338 469.6009,101.8395 467.1819,101.3708 464.8025,100.9346 462.4816,100.5335 460.2379,100.1703 458.09,99.8477 456.0567,99.5683 454.157,99.3349 452.4091,99.1501 450.8322,99.0168 449.0678,98.9216 447.0383,98.9284 445.4264,98.9836 443.8794,99.1848 443.6615,99.6284 442.8172,101.5471 442.7543,103.9318 442.7767,105.6332 442.8294,108.2123 442.8741,109.7885 442.9183,111.338 442.9636,112.6541 443.0353,114.087 443.1226,116.3795 443.2444,118.5019 443.2955,120.3646 443.3098,122.0145 443.3009,123.8392 443.2681,125.9078 443.2243,127.6558 443.1856,129.0958 443.1394,130.9944 443.1166,132.65 443.1745,134.6363 443.8392,136.5193 447.1636,137.0123 449.7428,137.2989 451.4621,137.6571 453.1816,137.9078 454.9009,138.1227 456.6204,138.4452 459.4861,138.8034 462.0651,139.2332 464.6443,139.7952 466.4252,140.1944 467.7779,140.5365 469.1897,140.923 470.6466,141.3495 472.1344,141.8115 473.6389,142.3042 475.1458,142.8234 476.6408,143.3644 478.1096,143.9225 479.5383,144.4935 480.9124,145.0726 482.67,145.8669 484.859,146.9088 487.3981,148.1556 490.2057,149.565 493.2007,151.0945 496.3015,152.7015 499.4266,154.3435 502.4948,155.9781 505.4245,157.5627 508.1345,159.0551 510.5432,160.4124 512.5691,161.5925 515.3567,163.3184 518.2497,165.2354 521.2422,167.3387 524.3289,169.6238 527.5042,172.0862 530.7623,174.7212 534.0977,177.5241 537.5048,180.4903 540.9781,183.6152 544.5119,186.8944 548.1005,190.3229 551.7385,193.8964 555.8018,197.9971 559.7794,202.1256 563.6843,206.2971 567.5291,210.5266 571.3267,214.8292 575.0899,219.2202 578.8312,223.7145 582.5637,228.3275 586.2999,233.074 590.0527,237.9693 593.835,243.0285 597.6594,248.2667 598.8327,249.9056 599.9413,251.4812 600.9775,252.981 601.9332,254.3926 602.8007,255.7038 603.5724,256.9021 604.5473,258.4764 605.8207,260.9546 604.2025,263.2451 603.3943,264.4361 602.9931,264.9826 602.577,265.5447 600.2275,268.7437 597.8225,272.0906 595.3751,275.5659 592.8987,279.1492 590.4063,282.8208 587.9113,286.5606 585.4267,290.3487 582.9658,294.1651 580.5419,297.9897 578.1682,301.8028 575.8577,305.5842 573.6238,309.3141 570.9166,313.929 568.2811,318.5178 565.7123,323.0894 563.2057,327.653 560.7567,332.2175 558.3605,336.792 556.0124,341.3856 553.7078,346.0072 551.4419,350.6661 549.2101,355.3712 547.0076,360.1316 544.3099,365.9795 543.6371,367.5959 542.7339,369.4182 540.8712,372.8571 540.5846,374.2899 538.7779,377.8885 537.6616,380.2663 536.5559,382.6828 535.4629,385.1321 534.3853,387.6087 533.3253,390.1068 532.2853,392.6208 531.2676,395.145 530.2747,397.6737 529.309,400.2013 528.3727,402.7222 527.4683,405.2306 526.9471,406.6958 526.4531,408.078 525.9807,409.3927 525.524,410.6556 525.0772,411.8823 524.2502,413.5496 523.2756,416.7386 522.7927,418.0182 522.2855,419.3551 521.3846,421.0003 521.2173,422.1711 520.8928,423.041 520.5361,424.002 519.9508,425.5884 519.1141,427.8694 518.2487,430.2438 517.3988,432.5912 516.5624,434.9102 515.6916,437.3172 514.8223,439.7121 513.9996,441.9708 513.2686,443.9691 512.8025,445.2373 512.5469,445.9288 511.0276,450.0679 509.4901,454.3432 507.9436,458.7263 506.3976,463.1883 504.8616,467.7005 503.3453,472.2344 501.858,476.7612 500.4093,481.2523 499.0087,485.6789 497.6657,490.0124 496.3898,494.2242 495.1905,498.2854 493.6387,503.6784 492.1134,509.1053 490.6198,514.5459 489.1629,519.9802 487.7479,525.3882 486.3796,530.7496 485.0631,536.0444 483.8036,541.2526 482.6061,546.3539 481.4757,551.3285 480.4174,556.1561 479.4025,560.272 479.216,561.8862 478.8389,563.7158 478.6861,565.4302 477.0435,572.5469 475.7983,578.9868 474.5996,585.4906 473.439,592.1134 472.308,598.9104 471.1978,605.9366 470.1003,613.247 469.007,620.8969 467.9091,628.9411 466.7985,637.4348 465.6666,646.4332 464.5048,655.9912 464.1618,658.9195 463.8092,662.0435 463.4548,665.2873 463.1057,668.5748 462.7697,671.8301 462.4541,674.9773 462.1666,677.9404 461.9145,680.6434 461.7053,683.0104 461.5467,684.9654 461.446,686.4325 461.3789,687.8575 460.9857,688.5374 460.7957,691.072 460.7431,692.5943 460.6693,695.854 460.5965,698.2541 460.4823,701.0481 460.3615,703.4839 460.2618,705.257 460.2042,707.2368 460.176,708.7216 460.1526,710.4603 460.1335,712.4619 460.1189,714.7353 460.1086,717.2898 460.1025,720.1343 460.1008,723.278 460.1031,726.7297 460.1095,730.4987 460.1202,735.0127 460.1318,738.8956 460.1453,742.1937 460.1611,744.9532 460.1803,747.2207 460.7747,754.5574 460.5803,753.319 460.2313,750.4642 460.2034,749.0422 460.1803,747.2207 460.1611,744.9532 460.1453,742.1936 460.1318,738.8956 460.1202,735.0127 460.1095,730.4987 460.1031,726.7297 460.1008,723.278 460.1025,720.1343 460.1086,717.2898 460.1189,714.7353 460.1335,712.4619 460.1526,710.4603 460.176,708.7216 460.2042,707.2368 460.2665,705.0869 460.4152,702.4451 460.5159,700.26 460.5786,698.8272 460.6312,697.0694 460.676,695.5317 460.7398,692.8809 460.7924,691.1436 460.9975,688.5496 461.3903,687.7517 461.446,686.4325 461.5467,684.9654 461.7053,683.0104 461.9145,680.6434 462.1666,677.9404 462.4541,674.9773 462.7697,671.8301 463.1057,668.5748 463.4548,665.2873 463.8092,662.0435 464.1618,658.9195 464.5048,655.9912 465.6666,646.4332 466.7985,637.4348 467.9091,628.9411 469.007,620.8969 470.1003,613.247 471.1978,605.9366 472.308,598.9104 473.439,592.1134 474.5996,585.4906 475.7983,578.9868 477.0435,572.5469 478.5428,566.0033 478.8389,563.7158 479.1399,562.2557 479.5458,560.8451 480.4174,556.1561 481.4757,551.3285 482.6061,546.3539 483.8036,541.2525 485.0631,536.0444 486.3796,530.7496 487.7479,525.3881 489.1629,519.9802 490.6198,514.5459 492.1134,509.1053 493.6387,503.6784 495.1905,498.2854 496.3898,494.2241 497.6657,490.0124 499.0087,485.6789 500.4093,481.2523 501.858,476.7612 503.3453,472.2344 504.8616,467.7005 506.3976,463.1883 507.9436,458.7263 509.4901,454.3433 511.0276,450.0679 512.5469,445.9288 512.8025,445.2373 513.2686,443.9691 513.9996,441.9708 514.8223,439.7121 515.6916,437.3172 516.5624,434.9102 517.3988,432.5912 518.2487,430.2438 519.1141,427.8694 519.9508,425.5885 520.5361,424.0021 520.8928,423.041 521.2173,422.171 521.3846,421.0003 522.2855,419.3551 522.7927,418.0182 523.2756,416.7386 523.7397,415.5009 524.1909,414.2893 524.5369,412.9765 525.524,410.6556 525.9807,409.3927 526.4531,408.078 526.9471,406.6958 527.4683,405.2305 528.3727,402.7222 529.309,400.2013 530.2747,397.6737 531.2676,395.145 532.2853,392.6208 533.3253,390.1068 534.3853,387.6087 535.4629,385.1321 536.5559,382.6828 537.6616,380.2663 538.7779,377.8884 540.5846,374.0033 541.0116,373.243 541.4443,372.8571 542.3104,370.4741 542.7575,369.5097 544.0234,366.8392 544.83,364.9563 547.0076,360.1316 549.2101,355.3712 551.4419,350.6661 553.7078,346.0072 556.0124,341.3856 558.3605,336.792 560.7567,332.2175 563.2057,327.653 565.7123,323.0894 568.2811,318.5178 570.9166,313.929 573.6238,309.3141 575.8577,305.5842 578.1682,301.8028 580.5419,297.9897 582.9658,294.1651 585.4267,290.3487 587.9113,286.5606 590.4063,282.8208 592.8987,279.1492 595.3751,275.5659 597.8225,272.0906 600.2275,268.7437 603.3428,264.5347 604.3458,263.2451 605.8145,260.9705 604.6436,258.6422 603.5724,256.9021 602.8007,255.7038 601.9332,254.3926 600.9775,252.981 599.9413,251.4812 598.8327,249.9056 597.6594,248.2667 593.835,243.0285 590.0527,237.9693 586.2999,233.074 582.5637,228.3275 578.8312,223.7145 575.0899,219.2202 571.3267,214.8292 567.5291,210.5266 563.6843,206.2971 559.7794,202.1256 555.8018,197.9971 551.7385,193.8964 548.1005,190.3229 544.5119,186.8944 540.9781,183.6152 537.5048,180.4903 534.0977,177.5241 530.7623,174.7212 527.5042,172.0862 524.3289,169.6238 521.2422,167.3387 518.2497,165.2354 515.3567,163.3184 512.5691,161.5925 510.5432,160.4124 508.1345,159.0551 505.4245,157.5627 502.4948,155.9781 499.4266,154.3435 496.3015,152.7015 493.2007,151.0945 490.2057,149.565 487.3981,148.1556 484.859,146.9088 482.67,145.8669 480.9124,145.0726 479.5383,144.4935 478.1096,143.9225 476.6408,143.3644 475.1458,142.8234 473.6389,142.3042 472.1344,141.8115 470.6466,141.3495 469.1897,140.923 467.7779,140.5365 466.4252,140.1944 465.1461,139.9014 463.8562,139.6451 460.6323,139.1616 458.9129,138.6601 457.1935,138.5168 454.9009,138.1944 453.3248,137.9078 451.1756,137.5854 449.6574,137.4262 448.9394,137.3268 448.2132,137.225 446.0174,136.9407 443.8412,136.5143 443.2078,134.8082 443.1156,133.1896 443.1372,131.1377 443.1856,129.0958 443.2243,127.6558 443.2671,125.9795 443.2992,124.0093 443.3101,122.1685 443.2978,120.5168 443.2511,118.672 443.1249,116.4512 443.0353,114.66 442.9726,112.7974 442.8942,110.5765 442.8294,108.4989 442.779,105.7765 442.7551,104.0571 442.8078,101.6177 443.6589,99.6302 443.9373,99.129 446.9129,98.9311 448.8697,98.9169 450.8322,99.0168 452.4091,99.1501 454.157,99.3349 456.0567,99.5683 458.09,99.8477 460.2379,100.1703 462.4816,100.5335 464.8025,100.9346 467.1819,101.3708 469.6009,101.8395 472.0411,102.338 475.6042,103.0921 478.8119,103.7886 481.7311,104.4456 484.4285,105.0812 486.971,105.7136 489.4252,106.361 491.8582,107.0414 494.3365,107.7732 496.9271,108.5743 499.6966,109.4629 502.7119,110.4573 506.3398,111.6691 507.7727,112.296 510.1209,113.1389 511.5624,113.7178 513.0934,114.3397 514.6741,114.9883 516.265,115.6476 517.8268,116.3015 519.3198,116.9335 520.7043,117.5278 521.941,118.0682 528.4216,121.0148 534.8168,124.0894 541.127,127.292 547.3523,130.6228 553.493,134.0821 559.5494,137.6697 565.5219,141.3862 571.4105,145.2314 577.2155,149.2057 582.9373,153.3093 588.576,157.5421 594.132,161.9044 596.4402,163.773 598.683,165.6214 600.8744,167.462 603.0279,169.3071 605.1572,171.1694 607.2765,173.061 609.399,174.9946 611.5389,176.9822 613.7097,179.0366 615.9251,181.17 618.1991,183.3948 620.5453,185.7234 622.8911,188.08 625.1144,190.3406 627.2301,192.5223 629.2536,194.6413 631.2,196.7143 633.0842,198.7579 634.9219,200.7886 636.7277,202.8232 638.517,204.8781 640.305,206.97 642.1068,209.1154 644.0353,211.2332 645.4254,213.0113 646.3815,211.9854 648.7726,209.1154 650.5743,206.97 652.3624,204.8781 654.1517,202.8232 655.9575,200.7886 657.795,198.7579 659.6794,196.7143 661.6257,194.6413 663.6492,192.5223 665.765,190.3406 667.9882,188.08 670.334,185.7234 672.6802,183.3948 674.9542,181.17 677.1697,179.0366 679.3406,176.9822 681.4803,174.9946 683.603,173.061 685.722,171.1694 687.8514,169.3071 690.0049,167.462 692.1962,165.6214 694.4391,163.773 696.7472,161.9044 702.3033,157.5421 707.9421,153.3093 713.6639,149.2058 719.4689,145.2315 725.3575,141.3862 731.3299,137.6699 737.3862,134.0821 743.527,130.6228 749.7523,127.2921 756.0625,124.0895 762.4577,121.0148 768.9384,118.0682 770.1749,117.5278 771.5594,116.9335 773.0524,116.3015 774.6142,115.6476 776.2052,114.9883 777.7861,114.3397 779.3169,113.7178 780.7585,113.1389 782.5905,112.4392 784.4174,111.7228 788.1674,110.4573 791.1827,109.4629 793.9522,108.5743 796.5428,107.7732 799.0212,107.0414 801.4541,106.361 803.9083,105.7136 806.4508,105.0812 809.1483,104.4456 812.0674,103.7886 815.2751,103.0921 818.8381,102.338 821.2783,101.8395 823.6974,101.3708 826.0769,100.9346 828.3978,100.5335 830.6415,100.1703 832.7893,99.8477 834.8225,99.5683 836.7224,99.3349 838.4701,99.1501 840.0471,99.0168 841.8125,98.9216 843.8263,98.9281 845.4562,98.9832 846.9998,99.1848 847.1966,99.6672 847.9464,101.0336 848.1082,102.3825 848.1249,103.9318 848.1024,105.8123 848.0487,108.2123 848.0084,109.7885 847.9611,111.338 847.9188,112.7974 847.8561,114.5168 847.7576,116.4153 847.6348,118.4974 847.5834,120.3646 847.5693,122.0134 847.5785,123.8392 847.611,125.9078 847.655,127.6558 847.6937,129.0958 847.7392,130.9586 847.7628,132.6511 847.7047,134.6368 847.04,136.5193 844.0591,137.084 842.6661,137.2249 841.1935,137.5138 838.6143,137.8004 836.895,137.9974 834.889,138.3377 832.883,138.5168 830.0173,139.1258 826.2383,139.7885 824.454,140.1944 823.1014,140.5365 821.6895,140.923 820.2326,141.3495 818.7448,141.8115 817.2404,142.3043 815.7335,142.8234 814.2385,143.3644 812.7695,143.9226 811.3409,144.4935 809.9669,145.0726 808.2093,145.8669 806.0203,146.9088 803.4813,148.1556 800.6735,149.565 797.6786,151.0945 794.5778,152.7015 791.4527,154.3435 788.3844,155.9781 785.4547,157.5627 782.7449,159.0551 780.3362,160.4124 778.3101,161.5925 775.5226,163.3184 772.6298,165.2354 769.637,167.3387 766.5504,169.6238 763.3752,172.0862 760.117,174.7212 756.7816,177.5241 753.3745,180.4903 749.9012,183.6153 746.3674,186.8944 742.7787,190.3229 739.1408,193.8964 735.0776,197.997 731.0999,202.1255 727.1949,206.2971 723.3502,210.5265 719.5525,214.8292 715.7894,219.2202 712.048,223.7145 708.3156,228.3275 704.5795,233.074 700.8266,237.9693 697.0443,243.0285 693.22,248.2667 692.0466,249.9056 690.938,251.4812 689.902,252.981 688.9462,254.3926 688.0786,255.7038 687.3071,256.9021 686.3375,258.4764 685.0614,260.9453 686.5189,263.1735 687.5934,264.2481 689.4559,267.1037 690.5798,268.6365 691.6826,270.155 692.7723,271.6711 693.8575,273.1969 694.9465,274.7442 696.0475,276.325 697.1692,277.9513 698.3196,279.6349 699.5074,281.3879 700.7407,283.222 702.0281,285.1495 706.2759,291.6223 710.4062,298.1051 714.4226,304.6048 718.3288,311.1279 722.1282,317.6811 725.8248,324.2711 729.4222,330.9045 732.924,337.588 736.334,344.3282 739.6557,351.132 742.8929,358.0057 746.0532,364.8332 747.7726,368.8451 748.5689,370.4741 749.0129,371.4264 749.4921,372.8571 750.4949,374.5764 752.1014,377.8884 753.2177,380.2663 754.3234,382.6828 755.4163,385.1321 756.494,387.6087 757.554,390.1068 758.5941,392.6208 759.6117,395.145 760.6046,397.6737 761.5703,400.2013 762.5066,402.7222 763.411,405.2305 763.9323,406.6958 764.4262,408.078 764.8987,409.3927 765.3555,410.6556 765.8021,411.8823 766.9726,415.269 767.1396,415.5009 767.6037,416.7386 768.0865,418.0182 768.5939,419.3551 769.4084,421.5735 769.9865,423.041 770.3431,424.0021 770.9285,425.5884 771.7651,427.8694 772.6306,430.2438 773.4805,432.5912 774.317,434.9102 775.1877,437.3172 776.0571,439.7121 776.8798,441.9708 777.6106,443.9691 778.2047,445.5831 779.6776,449.5857 781.0178,453.2909 782.3511,457.0395 783.6763,460.8268 784.9915,464.6477 786.2952,468.4974 787.5856,472.3711 788.8611,476.2637 790.1202,480.1703 791.3611,484.0863 792.5823,488.0066 793.7818,491.9264 795.4517,497.5159 797.1163,503.2525 798.7662,509.1003 800.3924,515.0234 801.9857,520.986 803.5367,526.9522 805.0364,532.886 806.4756,538.7519 807.845,544.5137 809.1356,550.1357 810.3379,555.5819 811.3906,560.272 811.7394,562.2557 812.1152,564.0784 812.5367,565.4302 813.8358,572.5469 815.0809,578.9868 816.2796,585.4906 817.4402,592.1135 818.5714,598.9104 819.6815,605.9366 820.7789,613.2471 821.8724,620.8969 822.9701,628.9411 824.0807,637.4349 825.2128,646.4332 826.3746,655.9912 826.7175,658.9195 827.0701,662.0435 827.4246,665.2873 827.7735,668.5748 828.1096,671.8301 828.4251,674.9773 828.7126,677.9404 828.9648,680.6434 829.174,683.0104 829.3326,684.9654 829.4333,686.4325 829.5004,687.858 829.8937,688.5374 830.0823,691.0541 830.1349,692.666 830.2032,695.46 830.2726,697.8242 830.3958,701.0481 830.4905,702.9902 830.5894,704.7376 830.654,706.3406 830.7032,708.7216 830.7267,710.4603 830.7458,712.4619 830.7604,714.7353 830.7706,717.2898 830.7767,720.1343 830.7785,723.278 830.7762,726.7297 830.7698,730.4987 830.7592,735.0128 830.7476,738.8956 830.7341,742.1937 830.7181,744.9533 830.6989,747.2207 830.6758,749.0422 830.648,750.4642 830.5098,753.0568 830.0743,754.0773 759.0266,754.6448 734.2312,754.6959 711.6109,754.7391 690.9992,754.7742 672.2294,754.8015 655.1345,754.821 639.5482,754.8328 625.3035,754.8371 612.2339,754.8338 600.1727,754.8231 588.9531,754.8051 578.4086,754.7798 568.3723,754.7475 563.3091,754.7299 557.7976,754.7125 551.9244,754.6954 545.7759,754.6788 539.4391,754.663 533.0006,754.648 526.5468,754.6342 520.1644,754.6217 513.9402,754.6107 507.9606,754.6013 502.3124,754.5939 496.8407,754.5883 495.2332,754.5869 493.1111,754.5851 490.3586,754.5827 487.1018,754.5799 483.4668,754.5768 479.5798,754.5735 475.5667,754.57 471.5535,754.5666 467.6664,754.5633 464.0314,754.5602 692.6454,296.0982 692.6276,298.1718 692.6104,300.1796 692.5838,303.2213 692.5651,305.075 692.5248,307.6631 692.4747,310.0093 692.4139,312.1407 692.3103,314.6173 692.0323,317.475 687.7484,317.475 682.9671,317.475 677.8541,317.475 672.5753,317.475 667.2964,317.475 662.1835,317.475 657.4021,317.475 653.1182,317.475 649.4977,317.475 646.7062,317.475 644.592,317.475 634.7533,317.4739 626.5504,317.4705 619.5714,317.4642 613.7217,317.4542 608.9072,317.4402 605.0336,317.4213 602.0065,317.3972 599.7316,317.3671 598.1145,317.3306 596.2667,317.2117 596.1468,315.2808 596.1011,313.2787 596.0655,310.7875 596.0408,307.9677 596.0273,304.9794 596.0253,301.9833 596.0353,299.1396 596.058,296.6089 596.0932,294.5513 596.1967,292.4639 597.5846,290.9794 599.3667,289.3228 601.0385,288.0106 603.5577,286.9227 605.1115,286.1611 605.7503,285.8566 607.0681,285.3109 609.2425,284.1549 611.1732,283.1997 612.8887,282.3577 614.4026,281.6229 615.7286,280.9891 617.4204,280.2063 619.095,279.4675 620.7959,278.9031 622.7521,278.4349 624.3876,277.672 625.6861,277.1033 627.4681,276.4575 629.033,276.0377 630.6383,275.7287 632.4293,275.3347 634.8058,274.8159 636.4055,274.466 638.0846,274.1554 639.5845,273.9631 641.1921,273.858 643.1285,273.8162 645.4397,273.8091 647.5861,273.8145 649.5361,273.8522 651.157,273.9496 652.6636,274.133 654.298,274.428 656.0736,274.8159 658.6502,275.3974 662.389,276.1494 664.4667,276.8213 666.1726,277.5377 667.892,278.3213 669.3624,278.8314 670.5959,278.9468 672.6204,279.8302 674.1249,280.4391 676.0604,281.4201 677.9487,282.3376 679.4565,283.1962 680.5682,284.0705 682.0771,285.4899 683.5099,286.6003 685.4443,288.2302 687.1151,289.489 687.5527,289.8179 687.9932,290.1505 688.431,290.4825 688.8603,290.8094 689.2757,291.127 690.4592,291.9734 692.6651,293.7977 713.4562,702.4044 711.5594,702.4117 710.2144,702.4127 703.5919,702.4127 702.4716,700.2539 702.4716,577.9547 702.4716,455.6555 703.4744,456.2194 705.0806,457.6433 706.2131,458.7852 707.318,459.9948 708.4297,461.3548 709.5009,463.0709 710.6465,465.2347 711.5458,467.1606 712.0897,468.4184 712.6176,469.7155 713.1253,471.0423 713.6091,472.389 714.0644,473.7461 714.4877,475.1038 715.1129,477.3466 715.6055,478.9586 716.0353,480.4272 716.6823,482.3985 717.1615,484.5517 717.501,486.9097 717.6042,490.823 717.6265,495.4282 717.6472,501.6444 717.6664,509.3416 717.6838,518.3902 717.6991,528.6602 717.712,540.0219 717.7225,552.3454 717.7303,565.5009 717.7351,579.3586 717.7368,593.7887 717.7363,617.856 717.7344,638.0046 717.7292,654.5835 717.7201,667.9418 717.7051,678.4285 717.6834,686.3928 717.6533,692.1836 717.614,696.15 717.5635,698.641 717.327,700.71 717.2812,701.7317 716.7828,702.291 588.4077,455.6555 588.4077,577.9547 588.4077,700.254 587.2874,702.4127 585.6758,702.4127 584.2233,702.4127 582.8168,702.4127 581.5069,702.4127 579.3199,702.4117 577.5697,702.4054 575.9577,702.3838 573.9023,702.2362 573.6136,701.6499 573.5997,700.7585 573.3157,698.6411 573.2654,696.15 573.2259,692.1836 573.1959,686.3928 573.1742,678.4286 573.1593,667.9418 573.1501,654.5835 573.1451,638.0046 573.143,617.856 573.1426,593.7887 573.1442,579.3586 573.149,565.5009 573.1569,552.3454 573.1674,540.0219 573.1803,528.6602 573.1956,518.3902 573.2128,509.3416 573.2321,501.6444 573.2529,495.4282 573.275,490.823 573.4175,486.8391 573.7575,484.3339 574.1807,482.4533 575.0532,479.675 575.7517,477.4183 576.3916,475.1038 576.8148,473.7461 577.2703,472.389 577.754,471.0423 578.2618,469.7156 578.7897,468.4184 579.3336,467.1606 580.1387,465.4317 581.2799,463.241 582.3737,461.4592 583.479,460.091 584.58,458.8765 585.7092,457.7299 587.2363,456.3513 689.2234,415.5914 689.8861,417.3466 690.4771,419.1377 691.2651,421.063 691.9413,422.6786 692.4427,423.9198 693.0562,425.4959 693.6204,427.1078 694.1935,428.8451 694.7756,430.7794 695.3279,432.6397 696.4293,436.4962 696.4829,593.4071 696.5367,750.3179 645.4397,750.3179 594.3426,750.3179 594.3964,593.4071 594.4501,436.496 594.8831,434.98 595.4834,432.8781 595.5515,432.6397 596.0443,430.9944 596.6398,428.9705 597.1995,427.2511 597.7726,425.6392 598.3906,424.0093 598.9379,422.6786 599.5816,421.1436 600.2084,419.5675 600.7996,417.9197 601.6592,415.5914 602.767,412.3379 603.421,410.4586 604.0439,408.7142 604.6469,407.0779 605.2404,405.5231 605.8355,404.0233 606.4426,402.5521 607.0728,401.0827 607.7365,399.5887 608.4446,398.0434 609.2079,396.4203 610.2741,394.1705 611.2592,392.2541 612.2174,390.3914 613.2204,388.6003 614.2861,386.6839 615.4503,384.678 616.6258,382.8321 616.8864,382.4098 617.1544,381.9727 617.4264,381.5266 618.2443,380.4511 618.9608,379.0899 619.8563,377.4063 621.0406,375.5168 621.9606,374.0123 622.9189,372.3086 623.7535,371.0259 624.6293,369.4362 625.952,367.3268 626.0709,364.6244 626.177,363.3097 626.6119,361.0674 628.8805,361.2354 630.3719,359.9403 631.2282,358.7778 632.0306,356.8938 634.3221,353.5687 635.8771,351.8906 637.2651,350.7914 638.9084,349.5489 639.9974,348.6024 640.8414,347.407 640.9021,345.744 641.6408,343.9961 643.1667,341.7534 645.4315,339.2813 647.6095,341.6235 649.1797,343.8931 649.9539,345.6581 650.0545,347.5386 651.4307,349.11 653.8592,350.9705 655.0906,351.969 656.5274,353.3887 657.321,354.9248 658.9223,357.1468 660.0714,359.3884 661.0842,360.5609 662.2656,361.2751 664.1982,361.0655 664.6107,362.4798 664.7986,364.475 664.9273,367.3268 665.6309,368.4348 666.3607,369.5884 667.126,371.0352 668.0622,372.4809 668.7696,373.7347 669.7189,375.3388 670.9905,377.3705 671.8324,378.8033 672.6921,380.3078 673.6951,381.8123 675.7723,385.3305 677.203,387.7821 678.5553,390.208 679.8389,392.6295 681.0636,395.0677 682.2392,397.5436 683.3755,400.0786 684.4821,402.6936 685.5688,405.41 686.6455,408.2488 687.7219,411.2312 646.7582,211.553 646.9418,211.3309 648.7726,209.1154 650.5743,206.97 652.3624,204.8781 654.1517,202.8232 655.9575,200.7886 657.795,198.7579 659.6794,196.7143 661.6257,194.6413 663.6492,192.5223 665.765,190.3406 667.9882,188.08 670.334,185.7234 672.6802,183.3948 674.9542,181.17 677.1697,179.0366 679.3406,176.9822 681.4803,174.9946 683.603,173.061 685.722,171.1694 687.8514,169.3071 690.0049,167.462 692.1962,165.6214 694.4391,163.773 696.7472,161.9044 702.3033,157.5421 707.9421,153.3093 713.6639,149.2058 719.4689,145.2315 725.3575,141.3862 731.3299,137.6699 737.3862,134.0821 743.527,130.6228 749.7523,127.2921 756.0625,124.0895 762.4577,121.0148 768.9384,118.0682 770.1749,117.5278 771.5594,116.9335 773.0524,116.3015 774.6142,115.6476 776.2052,114.9883 777.7861,114.3397 779.3169,113.7178 780.7585,113.1389 782.071,112.619 783.2151,112.1744 784.489,111.6959 788.1674,110.4573 791.1827,109.4629 793.9522,108.5743 796.5428,107.7732 799.0212,107.0414 801.4541,106.361 803.9083,105.7136 806.4508,105.0812 809.1483,104.4456 812.0674,103.7886 815.2751,103.0921 818.8381,102.338 821.2783,101.8395 823.6974,101.3708 826.0769,100.9346 828.3978,100.5335 830.6415,100.1703 832.7893,99.8477 834.8225,99.5683 836.7224,99.3349 838.4701,99.1501 840.0471,99.0168 841.9088,98.9186 843.889,98.9295 845.5144,98.9869 846.8727,99.154 847.2073,99.3765 847.1532,99.6555 847.3298,99.8022 847.8253,100.7056 848.0751,101.8116 848.1277,103.5323 848.1013,105.8123 848.0487,108.2123 848.0039,109.9318 847.9457,111.6511 847.892,113.3705 847.8113,115.2332 847.7375,116.666 847.6317,118.5825 847.5823,120.4362 847.5693,122.0912 847.5793,123.9198 847.6138,125.9795 847.655,127.6558 847.7151,129.7765 847.7563,131.9437 847.7391,134.2205 847.4692,135.556 846.9963,136.4799 846.3293,136.6888 844.0591,137.0123 841.9398,137.3268 841.2219,137.4261 840.5306,137.5206 839.8838,137.6077 839.3,137.6846 837.683,137.89 836.0353,138.1586 834.0293,138.4094 832.3899,138.7051 830.8771,138.9467 829.1379,139.2617 827.0084,139.6451 825.7331,139.9014 824.454,140.1944 823.1014,140.5365 821.6895,140.923 820.2326,141.3495 818.7448,141.8115 817.2404,142.3043 815.7335,142.8234 814.2385,143.3644 812.7695,143.9226 811.3409,144.4935 809.9669,145.0726 808.2093,145.8669 806.0203,146.9088 803.4813,148.1556 800.6735,149.565 797.6786,151.0945 794.5778,152.7015 791.4527,154.3435 788.3844,155.9781 785.4547,157.5627 782.7449,159.0551 780.3362,160.4124 778.3101,161.5925 775.5226,163.3184 772.6298,165.2354 769.637,167.3387 766.5504,169.6238 763.3752,172.0862 760.117,174.7212 756.7816,177.5241 753.3745,180.4903 749.9012,183.6153 746.3674,186.8944 742.7787,190.3229 739.1408,193.8964 735.0776,197.997 731.0999,202.1255 727.1949,206.2971 723.3502,210.5265 719.5525,214.8292 715.7894,219.2202 712.048,223.7145 708.3156,228.3275 704.5795,233.074 700.8266,237.9693 697.0443,243.0285 693.22,248.2667 692.0466,249.9056 690.938,251.4812 689.902,252.981 688.9462,254.3926 688.0786,255.7038 687.3071,256.9021 686.2794,258.5706 685.4121,260.1463 685.1093,261.0364 686.1047,262.5147 686.4083,262.9444 686.7421,263.4114 687.5934,264.5347 687.8862,264.9826 688.3023,265.5447 689.4559,267.1037 690.5798,268.6365 691.6826,270.155 692.7723,271.6711 693.8575,273.1969 694.9465,274.7442 696.0475,276.325 697.1692,277.9513 698.3196,279.6349 699.5074,281.3879 700.7407,283.222 702.0281,285.1495 706.2759,291.6223 710.4062,298.1051 714.4226,304.6048 718.3288,311.1279 722.1282,317.6811 725.8248,324.2711 729.4222,330.9045 732.924,337.588 736.334,344.3282 739.6557,351.132 742.8929,358.0057 745.7666,364.26 746.8218,366.6724 747.2422,367.5959 747.6776,368.546 748.1218,369.5097 748.5689,370.4741 749.0129,371.4264 749.4479,372.3536 749.8678,373.243 750.2665,374.0815 750.6382,374.8564 750.977,375.5547 752.1014,377.8885 753.2177,380.2663 754.3234,382.6828 755.4163,385.1321 756.494,387.6087 757.554,390.1068 758.5941,392.6208 759.6117,395.145 760.6046,397.6737 761.5703,400.2013 762.5066,402.7222 763.411,405.2306 763.9323,406.6958 764.4262,408.078 764.8987,409.3927 765.3555,410.6556 765.8021,411.8823 766.2445,413.0883 766.6885,414.2893 767.1396,415.5009 767.6037,416.7386 768.0865,418.0182 768.5939,419.3551 769.1313,420.765 769.3751,421.4073 769.662,422.1711 769.9865,423.041 770.3431,424.002 770.7263,425.0393 771.1307,426.1376 771.5503,427.2819 771.98,428.457 772.4141,429.648 772.8472,430.8397 773.2734,432.0172 773.6876,433.1653 774.1026,434.3167 774.5313,435.5038 774.968,436.7112 775.4073,437.9233 775.8434,439.1246 776.2706,440.2996 776.6834,441.4328 777.076,442.5087 777.4429,443.5118 777.7784,444.4265 778.0768,445.2373 778.3325,445.9288 779.6776,449.5856 781.0178,453.2909 782.3511,457.0395 783.6763,460.8268 784.9915,464.6477 786.2952,468.4974 787.5856,472.3711 788.8611,476.2637 790.1202,480.1704 791.3611,484.0863 792.5823,488.0066 793.7818,491.9264 795.4517,497.5159 797.1163,503.2525 798.7662,509.1003 800.3924,515.0234 801.9857,520.986 803.5367,526.9522 805.0364,532.886 806.4756,538.7519 807.845,544.5137 809.1356,550.1357 810.3379,555.5819 811.443,560.8167 811.5699,561.4329 811.8804,562.9397 812.128,564.1401 812.3984,565.4507 812.5356,566.1159 813.8358,572.5469 815.0809,578.9868 816.2796,585.4906 817.4402,592.1135 818.5714,598.9104 819.6815,605.9366 820.7789,613.2471 821.8724,620.8969 822.9701,628.9411 824.0807,637.4349 825.2128,646.4332 826.3746,655.9912 826.7175,658.9195 827.0701,662.0435 827.4246,665.2873 827.7735,668.5748 828.1096,671.8301 828.4251,674.9773 828.7126,677.9404 828.9648,680.6434 829.174,683.0104 829.3326,684.9654 829.4333,686.4325 829.4881,687.7429 829.6102,688.171 829.8521,688.4666 830.0091,689.5899 830.0845,691.072 830.1382,692.7376 830.2032,695.5317 830.2771,697.8958 830.3666,700.5466 830.4293,701.9794 830.5234,703.5556 830.6207,705.3331 830.6752,707.2368 830.7032,708.7216 830.7267,710.4603 830.7458,712.4619 830.7604,714.7353 830.7706,717.2898 830.7767,720.1343 830.7785,723.278 830.7762,726.7297 830.7698,730.4987 830.7592,735.0128 830.7476,738.8956 830.7341,742.1937 830.7181,744.9533 830.6989,747.2207 830.6758,749.0422 830.648,750.4642 830.5908,752.0906 830.4666,753.125 830.1439,753.6315 830.1039,754.4931 759.0266,754.6448 734.2312,754.6959 711.6109,754.7391 690.9992,754.7742 672.2294,754.8015 655.1345,754.821 639.5482,754.8328 625.3035,754.8371 612.2339,754.8338 600.1727,754.8231 588.9531,754.8051 578.4086,754.7798 568.3723,754.7475 563.3091,754.7299 557.7976,754.7125 551.9244,754.6954 545.7759,754.6788 539.4391,754.663 533.0006,754.648 526.5468,754.6342 520.1644,754.6217 513.9402,754.6107 507.9606,754.6013 502.3124,754.5939 496.8407,754.5883 495.2332,754.5869 493.1111,754.5851 490.3586,754.5827 487.1018,754.5799 483.4668,754.5768 479.5798,754.5735 475.5667,754.57 471.5535,754.5666 467.6664,754.5633 464.0314,754.5602 460.7747,754.5574 460.7468,753.6748 460.4132,753.124 460.2884,752.0928 460.2313,750.4642 460.2034,749.0422 460.1803,747.2207 460.1611,744.9532 460.1453,742.1937 460.1318,738.8956 460.1202,735.0127 460.1095,730.4987 460.1031,726.7297 460.1008,723.278 460.1025,720.1343 460.1086,717.2898 460.1189,714.7353 460.1335,712.4619 460.1526,710.4603 460.176,708.7216 460.2042,707.2368 460.2665,705.1003 460.3636,703.4123 460.4443,701.9794 460.5159,700.4033 460.5875,698.3974 460.6681,695.9257 460.7421,692.8093 460.7946,691.072 460.9357,688.8127 461.1449,688.3452 461.3768,687.871 461.446,686.4325 461.5467,684.9654 461.7053,683.0104 461.9145,680.6434 462.1666,677.9404 462.4541,674.9773 462.7697,671.8301 463.1057,668.5748 463.4548,665.2873 463.8092,662.0435 464.1618,658.9195 464.5048,655.9912 465.6666,646.4332 466.7985,637.4348 467.9091,628.9411 469.007,620.8969 470.1003,613.247 471.1978,605.9366 472.308,598.9104 473.439,592.1134 474.5996,585.4906 475.7983,578.9868 477.0435,572.5469 478.3436,566.1159 478.5911,564.9168 479.0469,562.7065 479.2084,561.9233 479.6891,559.6989 480.4174,556.1561 481.4757,551.3285 482.6061,546.3539 483.8036,541.2526 485.0631,536.0444 486.3796,530.7496 487.7479,525.3882 489.1629,519.9802 490.6198,514.5459 492.1134,509.1053 493.6387,503.6784 495.1905,498.2854 496.3898,494.2242 497.6657,490.0124 499.0087,485.6789 500.4093,481.2523 501.858,476.7612 503.3453,472.2344 504.8616,467.7005 506.3976,463.1883 507.9436,458.7263 509.4901,454.3432 511.0276,450.0679 512.5469,445.9288 512.8025,445.2373 513.101,444.4265 513.4363,443.5118 513.8032,442.5087 514.1959,441.4328 514.6086,440.2996 515.0359,439.1246 515.472,437.9233 515.9112,436.7112 516.348,435.5038 516.7767,434.3167 517.1917,433.1653 517.6058,432.0172 518.0322,430.8397 518.4651,429.648 518.8992,428.457 519.329,427.2819 519.7487,426.1376 520.1529,425.0393 520.5361,424.002 520.8928,423.041 521.2173,422.1711 521.5043,421.4073 521.748,420.765 522.2855,419.3551 522.7927,418.0182 523.2756,416.7386 523.7397,415.5009 524.1909,414.2893 524.6348,413.0883 525.0772,411.8823 525.524,410.6556 525.9807,409.3927 526.4531,408.078 526.9471,406.6958 527.4683,405.2306 528.3727,402.7222 529.309,400.2013 530.2747,397.6737 531.2676,395.145 532.2853,392.6208 533.3253,390.1068 534.3853,387.6087 535.4629,385.1321 536.5559,382.6828 537.6616,380.2663 538.7779,377.8885 539.9023,375.5547 540.241,374.8564 540.6128,374.0815 541.0116,373.243 541.4314,372.3536 541.8664,371.4264 542.3104,370.4741 542.7575,369.5097 543.2017,368.546 543.6371,367.5959 544.0576,366.6724 544.8831,364.8332 547.0076,360.1316 549.2101,355.3712 551.4419,350.6661 553.7078,346.0072 556.0124,341.3856 558.3605,336.792 560.7567,332.2175 563.2057,327.653 565.7123,323.0894 568.2811,318.5178 570.9166,313.929 573.6238,309.3141 575.8577,305.5842 578.1682,301.8028 580.5419,297.9897 582.9658,294.1651 585.4267,290.3487 587.9113,286.5606 590.4063,282.8208 592.8987,279.1492 595.3751,275.5659 597.8225,272.0906 600.2275,268.7437 602.577,265.5447 602.9931,264.9826 603.3943,264.4361 603.777,263.9105 604.1371,263.4114 604.4709,262.9444 604.7747,262.5147 605.7415,261.0853 605.6714,260.5743 604.5943,258.5615 603.5724,256.9021 602.8007,255.7038 601.9332,254.3926 600.9775,252.981 599.9413,251.4812 598.8327,249.9056 597.6594,248.2667 593.835,243.0285 590.0527,237.9693 586.2999,233.074 582.5637,228.3275 578.8312,223.7145 575.0899,219.2202 571.3267,214.8292 567.5291,210.5266 563.6843,206.2971 559.7794,202.1256 555.8018,197.9971 551.7385,193.8964 548.1005,190.3229 544.5119,186.8944 540.9781,183.6152 537.5048,180.4903 534.0977,177.5241 530.7623,174.7212 527.5042,172.0862 524.3289,169.6238 521.2422,167.3387 518.2497,165.2354 515.3567,163.3184 512.5691,161.5925 510.5432,160.4124 508.1345,159.0551 505.4245,157.5627 502.4948,155.9781 499.4266,154.3435 496.3015,152.7015 493.2007,151.0945 490.2057,149.565 487.3981,148.1556 484.859,146.9088 482.67,145.8669 480.9124,145.0726 479.5383,144.4935 478.1096,143.9225 476.6408,143.3644 475.1458,142.8234 473.6389,142.3042 472.1344,141.8115 470.6466,141.3495 469.1897,140.923 467.7779,140.5365 466.4252,140.1944 465.1461,139.9014 463.8562,139.6362 461.7414,139.2617 460.6421,139.0695 459.5561,138.8835 458.4893,138.7051 457.1935,138.481 454.9009,138.1586 453.1099,137.89 451.5793,137.6846 450.9954,137.6077 450.3488,137.5206 449.6574,137.4262 448.9394,137.3268 448.2132,137.225 447.4969,137.1234 446.8083,137.0245 444.2532,136.636 443.764,136.3545 443.2206,134.9255 443.1194,133.3373 443.1232,131.9437 443.1629,129.9198 443.248,126.7676 443.2858,124.9227 443.3079,122.9884 443.3063,121.2422 443.2812,119.684 443.2334,118.2869 443.1405,116.6302 443.0667,115.2332 442.9995,113.3705 442.9279,111.5079 442.8831,110.075 442.8271,108.2123 442.779,105.8123 442.7517,103.5326 442.7907,102.0232 442.9785,100.9004 443.4383,99.9444 443.7057,99.7196 443.679,99.4194 443.8183,99.2215 444.8912,99.0226 446.295,98.9473 448.137,98.9135 449.445,98.9374 450.8322,99.0168 452.4091,99.1501 454.157,99.3349 456.0567,99.5683 458.09,99.8477 460.2379,100.1703 462.4816,100.5335 464.8025,100.9346 467.1819,101.3708 469.6009,101.8395 472.0411,102.338 475.6042,103.0921 478.8119,103.7886 481.7311,104.4456 484.4285,105.0812 486.971,105.7136 489.4252,106.361 491.8582,107.0414 494.3365,107.7732 496.9271,108.5743 499.6966,109.4629 502.7119,110.4573 506.3757,111.7049 508.2025,112.3676 510.1209,113.1389 511.5624,113.7178 513.0934,114.3397 514.6741,114.9883 516.265,115.6476 517.8268,116.3015 519.3198,116.9335 520.7043,117.5278 521.941,118.0682 528.4216,121.0148 534.8168,124.0894 541.127,127.292 547.3523,130.6228 553.493,134.0821 559.5494,137.6697 565.5219,141.3862 571.4105,145.2314 577.2155,149.2057 582.9373,153.3093 588.576,157.5421 594.132,161.9044 596.4402,163.773 598.683,165.6214 600.8744,167.462 603.0279,169.3071 605.1572,171.1694 607.2765,173.061 609.399,174.9946 611.5389,176.9822 613.7097,179.0366 615.9251,181.17 618.1991,183.3948 620.5453,185.7234 622.8911,188.08 625.1144,190.3406 627.2301,192.5223 629.2536,194.6413 631.2,196.7143 633.0842,198.7579 634.9219,200.7886 636.7277,202.8232 638.517,204.8781 640.305,206.97 642.1068,209.1154 644.5278,212.0303 645.4077,212.973 645.6185,212.8566 645.4089,339.3944 644.489,340.1584 643.0413,341.9302 642.1861,343.1459 641.3191,344.6137 640.8315,346.1024 640.8568,347.2233 640.4883,348.0374 639.4015,349.1515 636.9697,351.0108 635.5077,352.2018 634.4544,353.2363 634.2308,353.6317 634.1464,354.0169 633.3932,355.1358 632.1863,356.6755 631.8807,357.3218 631.5948,358.1727 630.5141,359.7746 629.5507,360.7615 628.8646,361.1555 628.4083,361.2867 627.7753,361.2808 626.9346,361.0755 626.7078,361.1129 626.483,361.508 626.2336,362.7964 626.0781,364.4744 625.952,367.3268 624.4234,369.7407 623.83,370.799 623.7139,371.136 623.0118,372.1474 622.1846,373.5735 621.4838,374.8362 620.7316,375.969 619.8741,377.3795 619.0145,378.8391 617.9578,380.5944 617.4264,381.5266 617.1544,381.9727 616.8864,382.4098 616.6258,382.8321 615.5577,384.5705 614.3577,386.5765 613.2562,388.475 612.2622,390.3376 611.2771,392.2003 610.3099,394.1705 609.2079,396.4203 608.4446,398.0434 607.7365,399.5887 607.0728,401.0827 606.4426,402.5521 605.8355,404.0233 605.2404,405.5231 604.6469,407.0779 604.0439,408.7142 603.421,410.4586 602.767,412.3379 601.7845,415.1974 601.2652,416.7018 600.7279,418.063 600.1189,419.7466 599.5279,421.2869 598.9379,422.6786 598.4084,423.9735 597.8084,425.5227 597.2354,427.1615 596.6622,428.8989 596.0532,430.8511 595.6055,432.463 595.3892,433.2077 595.1937,433.8929 595.0206,434.4988 594.8379,435.1382 594.4501,436.496 594.3964,593.4071 594.3426,750.3179 645.4397,750.3179 696.5367,750.3179 696.4829,593.4071 696.4293,436.4962 695.3279,432.6397 694.8115,430.8869 694.2293,428.9347 693.6473,427.1794 693.0741,425.5317 692.4697,423.9914 691.9413,422.6786 691.2025,420.9197 690.2443,418.4571 689.5995,416.7018 689.1696,415.3406 688.8077,414.3783 687.7219,411.2312 686.6455,408.2488 685.5688,405.41 684.4821,402.6936 683.3755,400.0786 682.2392,397.5436 681.0636,395.0677 679.8389,392.6295 678.5553,390.208 677.203,387.7821 675.7723,385.3305 674.2535,382.8321 673.9929,382.4098 673.7249,381.9727 673.2652,381.1675 672.648,380.1922 672.395,379.7681 671.7249,378.6063 670.9189,377.2272 670.1834,376.0228 669.6064,375.1854 668.4382,373.1347 667.6614,371.8239 667.2361,371.2328 667.0576,370.8499 666.3943,369.6422 664.9274,367.3269 664.7723,364.0376 664.5322,362.0284 664.2171,361.1373 663.9667,361.0754 663.2219,361.2559 662.6562,361.3074 662.0247,361.1693 661.5403,360.8931 660.9316,360.42 659.9801,359.2563 659.2314,358.0566 658.9988,357.3218 658.6929,356.6755 657.4872,355.1414 656.751,354.0483 656.6423,353.5972 656.2086,352.9877 654.9517,351.8392 653.6532,350.8093 651.7939,349.4112 650.7403,348.446 650.1174,347.5726 650.0554,346.8063 649.9914,345.8275 649.5331,344.5868 648.7223,343.1761 647.2984,341.225 645.9791,339.7524 702.4716,577.9547 702.4716,700.2539 703.5919,702.4127 710.2144,702.4127 711.5594,702.4117 713.3666,702.405 714.9607,702.3824 716.6904,702.2841 717.1336,702.0723 717.2981,701.6461 717.0368,701.0643 717.3794,700.6988 717.501,700.0058 717.5635,698.641 717.614,696.15 717.6533,692.1836 717.6834,686.3928 717.7051,678.4285 717.7201,667.9418 717.7292,654.5835 717.7344,638.0046 717.7363,617.856 717.7368,593.7887 717.7351,579.3586 717.7303,565.5009 717.7225,552.3454 717.712,540.0219 717.6991,528.6602 717.6838,518.3902 717.6664,509.3416 717.6472,501.6444 717.6265,495.4282 717.6042,490.823 717.535,486.9619 717.3156,485.9638 717.0902,484.147 716.6806,482.4153 716.098,480.5884 715.498,478.672 715.0323,477.0959 714.4877,475.1038 714.0644,473.7461 713.6091,472.389 713.1253,471.0423 712.6176,469.7155 712.0897,468.4184 711.5458,467.1606 710.6935,465.3265 709.5507,463.1537 708.5915,461.5899 707.6526,460.3781 706.2634,458.8384 705.1232,457.684 703.5998,456.3183 702.4716,455.6555 587.4044,456.2358 586.3007,457.1688 585.1942,458.2409 584.0532,459.4451 582.5337,461.2293 581.332,463.1481 580.1868,465.3265 579.3336,467.1606 578.7897,468.4184 578.2618,469.7156 577.754,471.0423 577.2703,472.389 576.8148,473.7461 576.3916,475.1038 575.9935,476.4511 575.6532,477.7406 575.004,479.9078 574.1885,482.4265 573.7316,484.4705 573.5649,485.9699 573.3445,486.9618 573.275,490.823 573.2529,495.4282 573.2321,501.6444 573.2128,509.3416 573.1956,518.3902 573.1803,528.6602 573.1674,540.0219 573.1569,552.3454 573.149,565.5009 573.1442,579.3586 573.1426,593.7887 573.143,617.856 573.1451,638.0046 573.1501,654.5835 573.1593,667.9418 573.1742,678.4286 573.1959,686.3928 573.2259,692.1836 573.2654,696.15 573.3157,698.6411 573.4592,700.6749 573.7122,700.8735 573.8475,701.0804 573.5815,701.6502 573.7456,702.0725 574.1891,702.2841 575.913,702.3823 577.516,702.4047 579.3199,702.4117 580.6682,702.4127 583.3372,702.4127 584.9553,702.4127 587.2874,702.4127 588.4077,700.2539 588.4077,577.9547 588.4077,455.6555 641.2637,273.855 639.6517,273.956 638.1473,274.1442 636.5308,274.4437 634.292,274.9228 633.1458,275.2093 632.5726,275.2809 631.6674,275.516 630.2443,275.8138 628.7308,276.1054 627.2756,276.5212 625.7308,277.0854 623.7786,277.9631 622.3111,278.5908 620.8682,278.8773 619.798,279.1966 618.3876,279.7675 616.8804,280.4502 615.7286,280.9891 614.4026,281.6229 612.8887,282.3577 611.1732,283.1997 609.2425,284.1549 608.5322,284.506 607.8195,284.8557 607.1127,285.2 606.4203,285.535 605.7503,285.8566 605.1115,286.1611 604.5118,286.4443 603.9596,286.7023 602.7518,287.2541 601.404,287.8485 600.4951,288.4037 599.4204,289.2959 597.7726,290.7914 596.4786,292.1213 596.1887,292.517 596.0932,294.5513 596.058,296.6089 596.0353,299.1396 596.0253,301.9833 596.0273,304.9794 596.0408,307.9677 596.0655,310.7875 596.1011,313.2787 596.1468,315.2808 596.2614,317.2078 598.1145,317.3306 599.7316,317.3671 602.0065,317.3972 605.0336,317.4213 608.9072,317.4402 613.7217,317.4542 619.5714,317.4642 626.5504,317.4705 634.7533,317.4739 644.592,317.475 646.7062,317.475 649.4977,317.475 653.1182,317.475 657.4021,317.475 662.1835,317.475 667.2964,317.475 672.5753,317.475 677.8541,317.475 682.9671,317.475 687.7484,317.475 692.0323,317.4749 692.1693,316.0876 692.3062,314.6839 692.4114,312.2123 692.4719,310.1168 692.5225,307.7526 692.5543,305.843 692.5773,304.0093 692.6028,301.0769 692.6188,299.2003 692.6321,297.6493 692.6454,296.0982 692.6651,293.7977 690.9429,292.4232 690.4592,292.0451 689.6713,291.4308 689.2757,291.127 688.8603,290.8094 688.431,290.4825 687.9932,290.1505 687.5527,289.8179 687.1151,289.489 686.6863,289.168 685.6234,288.3914 684.5276,287.5115 683.3666,286.5645 681.8801,285.3109 680.0163,283.5925 678.4458,282.5974 676.7039,281.7287 674.9532,280.8911 673.9839,280.4325 672.2443,279.6422 670.7554,279.0136 669.9391,278.798 669.5381,278.8383 668.9106,278.7146 667.6054,278.1824 665.8682,277.3854 664.3279,276.7675 662.5457,276.1905 660.6384,275.8093 658.2204,275.2988 656.0736,274.8159 654.3875,274.4481 652.7308,274.1442 651.2264,273.9557 649.6166,273.855 647.6733,273.8153 645.4397,273.8091 643.2092,273.8152 646.3458,212.0392 645.4397,212.997 644.5278,212.0303 642.1068,209.1154 640.305,206.97 638.517,204.8781 636.7277,202.8232 634.9219,200.7886 633.0842,198.7579 631.2,196.7143 629.2536,194.6413 627.2301,192.5223 625.1144,190.3406 622.8911,188.08 620.5453,185.7234 618.1991,183.3948 615.9251,181.17 613.7097,179.0366 611.5389,176.9822 609.399,174.9946 607.2765,173.061 605.1572,171.1694 603.0279,169.3071 600.8744,167.462 598.683,165.6214 596.4402,163.773 594.132,161.9044 588.576,157.5421 582.9373,153.3093 577.2155,149.2057 571.4105,145.2314 565.5219,141.3862 559.5494,137.6697 553.493,134.0821 547.3523,130.6228 541.127,127.292 534.8168,124.0894 528.4216,121.0148 521.941,118.0682 520.7043,117.5278 519.3198,116.9335 517.8268,116.3015 516.265,115.6476 514.6741,114.9883 513.0934,114.3397 511.5624,113.7178 510.1209,113.1389 508.2025,112.3676 506.3757,111.7049 502.7119,110.4573 499.6966,109.4629 496.9271,108.5743 494.3365,107.7732 491.8582,107.0414 489.4252,106.361 486.971,105.7136 484.4285,105.0812 481.7311,104.4456 478.8119,103.7886 475.6042,103.0921 472.0411,102.338 469.6009,101.8395 467.1819,101.3708 464.8025,100.9346 462.4816,100.5335 460.2379,100.1703 458.09,99.8477 456.0567,99.5683 454.157,99.3349 452.4091,99.1501 450.8322,99.0168 448.9726,98.9188 446.9846,98.9297 445.3636,98.9872 444.1838,99.1187 443.6662,99.3517 443.7119,99.7141 443.3263,100.1112 442.8537,101.403 442.7513,103.1146 442.779,105.7765 442.8271,108.2123 442.8831,110.075 442.9279,111.5079 442.9995,113.3705 443.0667,115.2332 443.1405,116.6302 443.248,118.5825 443.2969,120.4272 443.3101,122.0901 443.2998,123.9377 443.2671,125.9078 443.2243,127.6558 443.1629,129.9198 443.1232,131.9437 443.1238,133.6721 443.2491,135.0226 443.764,136.3545 444.2207,136.6241 445.588,136.8452 446.166,136.9309 446.8083,137.0245 447.4969,137.1234 448.2132,137.225 448.9394,137.3268 449.6574,137.4262 450.3488,137.5206 450.9954,137.6077 451.5793,137.6846 453.1099,137.881 454.9009,138.1586 457.1935,138.481 458.4893,138.7051 459.5561,138.8835 461.492,139.2332 464.7338,139.8131 466.4252,140.1944 467.7779,140.5365 469.1897,140.923 470.6466,141.3495 472.1344,141.8115 473.6389,142.3042 475.1458,142.8234 476.6408,143.3644 478.1096,143.9225 479.5383,144.4935 480.9124,145.0726 482.67,145.8669 484.859,146.9088 487.3981,148.1556 490.2057,149.565 493.2007,151.0945 496.3015,152.7015 499.4266,154.3435 502.4948,155.9781 505.4245,157.5627 508.1345,159.0551 510.5432,160.4124 512.5691,161.5925 515.3567,163.3184 518.2497,165.2354 521.2422,167.3387 524.3289,169.6238 527.5042,172.0862 530.7623,174.7212 534.0977,177.5241 537.5048,180.4903 540.9781,183.6152 544.5119,186.8944 548.1005,190.3229 551.7385,193.8964 555.8018,197.9971 559.7794,202.1256 563.6843,206.2971 567.5291,210.5266 571.3267,214.8292 575.0899,219.2202 578.8312,223.7145 582.5637,228.3275 586.2999,233.074 590.0527,237.9693 593.835,243.0285 597.6594,248.2667 598.8327,249.9056 599.9413,251.4812 600.9775,252.981 601.9332,254.3926 602.8007,255.7038 603.5724,256.9021 604.5943,258.5615 605.467,260.1461 605.77,261.0364 604.7747,262.5147 604.4709,262.9444 604.1371,263.4114 603.777,263.9105 603.3943,264.4361 602.9931,264.9826 602.577,265.5447 600.2275,268.7437 597.8225,272.0906 595.3751,275.5659 592.8987,279.1492 590.4063,282.8208 587.9113,286.5606 585.4267,290.3487 582.9658,294.1651 580.5419,297.9897 578.1682,301.8028 575.8577,305.5842 573.6238,309.3141 570.9166,313.929 568.2811,318.5178 565.7123,323.0894 563.2057,327.653 560.7567,332.2175 558.3605,336.792 556.0124,341.3856 553.7078,346.0072 551.4419,350.6661 549.2101,355.3712 547.0076,360.1316 544.8831,364.8332 544.0576,366.6724 543.6371,367.5959 543.2017,368.546 542.7575,369.5097 542.3104,370.4741 541.8664,371.4264 541.4314,372.3536 541.0116,373.243 540.6128,374.0815 540.241,374.8564 539.9023,375.5547 538.7779,377.8884 537.6616,380.2663 536.5559,382.6828 535.4629,385.1321 534.3853,387.6087 533.3253,390.1068 532.2853,392.6208 531.2676,395.145 530.2747,397.6737 529.309,400.2013 528.3727,402.7222 527.4683,405.2305 526.9471,406.6958 526.4531,408.078 525.9807,409.3927 525.524,410.6556 525.0772,411.8823 524.6348,413.0883 524.1909,414.2893 523.7397,415.5009 523.2756,416.7386 522.7927,418.0182 522.2855,419.3551 521.748,420.765 521.5043,421.4073 521.2173,422.171 520.8928,423.041 520.5361,424.0021 520.1529,425.0393 519.7487,426.1376 519.329,427.2818 518.8992,428.457 518.4651,429.648 518.0322,430.8397 517.6058,432.0172 517.1917,433.1652 516.7767,434.3167 516.348,435.5038 515.9112,436.7112 515.472,437.9233 515.0359,439.1246 514.6086,440.2996 514.1959,441.4328 513.8032,442.5087 513.4363,443.5118 513.101,444.4265 512.8025,445.2373 512.5469,445.9288 511.0276,450.0679 509.4901,454.3433 507.9436,458.7263 506.3976,463.1883 504.8616,467.7005 503.3453,472.2344 501.858,476.7612 500.4093,481.2523 499.0087,485.6789 497.6657,490.0124 496.3898,494.2241 495.1905,498.2854 493.6387,503.6784 492.1134,509.1053 490.6198,514.5459 489.1629,519.9802 487.7479,525.3881 486.3796,530.7496 485.0631,536.0444 483.8036,541.2525 482.6061,546.3539 481.4757,551.3285 480.4174,556.1561 479.6891,559.6989 479.2084,561.9233 479.0469,562.7065 478.7513,564.1401 478.4809,565.4506 478.3436,566.1159 477.0435,572.5469 475.7983,578.9868 474.5996,585.4906 473.439,592.1134 472.308,598.9104 471.1978,605.9366 470.1003,613.247 469.007,620.8969 467.9091,628.9411 466.7985,637.4348 465.6666,646.4332 464.5048,655.9912 464.1618,658.9195 463.8092,662.0435 463.4548,665.2873 463.1057,668.5748 462.7697,671.8301 462.4541,674.9773 462.1666,677.9404 461.9145,680.6434 461.7053,683.0104 461.5467,684.9654 461.4066,687.4149 461.3127,688.1031 461.0435,688.4378 460.8901,689.3089 460.7952,691.1078 460.7421,692.8093 460.6681,695.9257 460.583,698.3974 460.5159,700.4033 460.4196,702.4451 460.268,705.069 460.2042,707.2368 460.176,708.7216 460.1526,710.4603 460.1335,712.4619 460.1189,714.7353 460.1086,717.2898 460.1025,720.1343 460.1008,723.278 460.1031,726.7297 460.1095,730.4987 460.1202,735.0127 460.1318,738.8956 460.1453,742.1936 460.1611,744.9532 460.1803,747.2207 460.2034,749.0422 460.2313,750.4642 460.2884,752.0928 460.4132,753.124 460.7177,753.5996 460.7954,754.553 464.0314,754.5602 467.6664,754.5633 471.5535,754.5666 475.5667,754.57 479.5798,754.5735 483.4668,754.5768 487.1018,754.5799 490.3586,754.5827 493.1111,754.5851 495.2332,754.5869 496.8407,754.5883 502.3124,754.5939 507.9606,754.6013 513.9402,754.6107 520.1644,754.6217 526.5468,754.6342 533.0006,754.648 539.4391,754.663 545.7759,754.6788 551.9244,754.6954 557.7976,754.7125 563.3091,754.7299 568.3723,754.7475 578.4086,754.7798 588.9531,754.8051 600.1727,754.8231 612.2339,754.8338 625.3035,754.8371 639.5482,754.8328 655.1345,754.821 672.2294,754.8015 690.9992,754.7742 711.6109,754.7391 734.2312,754.6959 759.0266,754.6448 830.1007,754.4865 830.1869,753.5005 830.4908,753.1096 830.6284,751.2152 830.6758,749.0422 830.6989,747.2207 830.7181,744.9533 830.7341,742.1937 830.7476,738.8956 830.7592,735.0128 830.7698,730.4987 830.7762,726.7297 830.7785,723.278 830.7767,720.1343 830.7706,717.2898 830.7604,714.7353 830.7458,712.4619 830.7267,710.4603 830.7032,708.7216 830.6752,707.2368 830.6207,705.3331 830.5234,703.5556 830.4293,701.9794 830.3666,700.5466 830.2771,697.8958 830.2032,695.5317 830.1349,692.7376 830.0845,691.072 829.9435,688.8122 829.7009,688.311 829.4944,687.8048 829.4333,686.4325 829.3326,684.9654 829.174,683.0104 828.9648,680.6434 828.7126,677.9404 828.4251,674.9773 828.1096,671.8301 827.7735,668.5748 827.4246,665.2873 827.0701,662.0435 826.7175,658.9195 826.3746,655.9912 825.2128,646.4332 824.0807,637.4349 822.9701,628.9411 821.8724,620.8969 820.7789,613.2471 819.6815,605.9366 818.5714,598.9104 817.4402,592.1135 816.2796,585.4906 815.0809,578.9868 813.8358,572.5469 812.5356,566.1159 812.4456,565.6799 812.1402,564.1994 811.8324,562.7066 811.5699,561.4329 811.443,560.8167 810.3379,555.5819 809.1356,550.1357 807.845,544.5137 806.4756,538.7519 805.0364,532.886 803.5367,526.9522 801.9857,520.986 800.3924,515.0234 798.7662,509.1003 797.1163,503.2525 795.4517,497.5159 793.7818,491.9264 792.5823,488.0066 791.3611,484.0863 790.1202,480.1703 788.8611,476.2637 787.5856,472.3711 786.2952,468.4974 784.9915,464.6477 783.6763,460.8268 782.3511,457.0395 781.0178,453.2909 779.6776,449.5857 778.3325,445.9288 778.0768,445.2373 777.7784,444.4265 777.4429,443.5118 777.076,442.5087 776.6834,441.4328 776.2706,440.2996 775.8434,439.1246 775.4073,437.9233 774.968,436.7112 774.5313,435.5038 774.1026,434.3167 773.6876,433.1652 773.2734,432.0172 772.8472,430.8397 772.4141,429.648 771.98,428.457 771.5503,427.2818 771.1307,426.1376 770.7263,425.0393 770.3431,424.0021 769.9865,423.041 769.662,422.171 769.3751,421.4073 769.1313,420.765 768.5939,419.3551 768.0865,418.0182 767.6037,416.7386 767.1396,415.5009 766.6885,414.2893 766.2445,413.0883 765.8021,411.8823 765.3555,410.6556 764.8987,409.3927 764.4262,408.078 763.9323,406.6958 763.411,405.2305 762.5066,402.7222 761.5703,400.2013 760.6046,397.6737 759.6117,395.145 758.5941,392.6208 757.554,390.1068 756.494,387.6087 755.4163,385.1321 754.3234,382.6828 753.2177,380.2663 752.1014,377.8884 750.977,375.5547 750.6382,374.8564 750.2665,374.0815 749.8678,373.243 749.4479,372.3536 749.0129,371.4264 748.5689,370.4741 748.1218,369.5097 747.6776,368.546 747.2422,367.5959 746.8218,366.6724 745.7666,364.26 742.8929,358.0057 739.6557,351.132 736.334,344.3282 732.924,337.588 729.4222,330.9045 725.8248,324.2711 722.1282,317.6811 718.3288,311.1279 714.4226,304.6048 710.4062,298.1051 706.2759,291.6223 702.0281,285.1495 700.7407,283.222 699.5074,281.3879 698.3196,279.6349 697.1692,277.9513 696.0475,276.325 694.9465,274.7442 693.8575,273.1969 692.7723,271.6711 691.6826,270.155 690.5798,268.6365 689.4559,267.1037 688.3023,265.5447 687.8862,264.9826 687.5934,264.5347 686.7421,263.4114 686.4083,262.9444 686.1047,262.5147 685.835,262.1281 685.1101,261.0267 685.4122,260.1461 686.2794,258.5706 687.3071,256.9021 688.0786,255.7038 688.9462,254.3926 689.902,252.981 690.938,251.4812 692.0466,249.9056 693.22,248.2667 697.0443,243.0285 700.8266,237.9693 704.5795,233.074 708.3156,228.3275 712.048,223.7145 715.7894,219.2202 719.5525,214.8292 723.3502,210.5265 727.1949,206.2971 731.0999,202.1255 735.0776,197.997 739.1408,193.8964 742.7787,190.3229 746.3674,186.8944 749.9012,183.6153 753.3745,180.4903 756.7816,177.5241 760.117,174.7212 763.3752,172.0862 766.5504,169.6238 769.637,167.3387 772.6298,165.2354 775.5226,163.3184 778.3101,161.5925 780.3362,160.4124 782.7449,159.0551 785.4547,157.5627 788.3844,155.9781 791.4527,154.3435 794.5778,152.7015 797.6786,151.0945 800.6735,149.565 803.4813,148.1556 806.0203,146.9088 808.2093,145.8669 809.9669,145.0726 811.3409,144.4935 812.7695,143.9226 814.2385,143.3644 815.7335,142.8234 817.2404,142.3043 818.7448,141.8115 820.2326,141.3495 821.6895,140.923 823.1014,140.5365 824.454,140.1944 825.7331,139.9014 827.0084,139.6451 829.1379,139.2617 830.8771,138.9467 832.3899,138.7051 834.0293,138.4452 836.0353,138.1586 837.683,137.881 839.3,137.6846 839.8838,137.6077 840.5306,137.5206 841.2219,137.4261 841.9398,137.3268 844.0591,137.0123 846.101,136.7302 846.9277,136.5263 847.269,136.056 847.5898,135.1205 847.7391,134.2205 847.7563,131.9437 847.7151,129.7765 847.655,127.6558 847.6138,125.9795 847.5793,123.9198 847.5693,122.0912 847.5823,120.4362 847.6317,118.5825 847.7375,116.666 847.8113,115.2332 847.892,113.3705 847.9457,111.6511 848.0039,109.9318 848.0487,108.2123 848.1013,105.8123 848.1277,103.5323 848.061,101.6348 847.817,100.7123 847.361,99.8192 847.1659,99.73 847.2057,99.4157 847.0609,99.2214 845.989,99.0229 844.5965,98.9473 842.7428,98.9136 841.4344,98.9374 840.0471,99.0168 838.4701,99.1501 836.7224,99.3349 834.8225,99.5683 832.7893,99.8477 830.6415,100.1703 828.3978,100.5335 826.0769,100.9346 823.6974,101.3708 821.2783,101.8395 818.8381,102.338 815.2751,103.0921 812.0674,103.7886 809.1483,104.4456 806.4508,105.0812 803.9083,105.7136 801.4541,106.361 799.0212,107.0414 796.5428,107.7732 793.9522,108.5743 791.1827,109.4629 788.1674,110.4573 784.489,111.6959 783.2151,112.1744 782.071,112.619 780.7585,113.1389 779.3169,113.7178 777.7861,114.3397 776.2052,114.9883 774.6142,115.6476 773.0524,116.3015 771.5594,116.9335 770.1749,117.5278 768.9384,118.0682 762.4577,121.0148 756.0625,124.0895 749.7523,127.2921 743.527,130.6228 737.3862,134.0821 731.3299,137.6699 725.3575,141.3862 719.4689,145.2315 713.6639,149.2058 707.9421,153.3093 702.3033,157.5421 696.7472,161.9044 694.4391,163.773 692.1962,165.6214 690.0049,167.462 687.8514,169.3071 685.722,171.1694 683.603,173.061 681.4803,174.9946 679.3406,176.9822 677.1697,179.0366 674.9542,181.17 672.6802,183.3948 670.334,185.7234 667.9882,188.08 665.765,190.3406 663.6492,192.5223 661.6257,194.6413 659.6794,196.7143 657.795,198.7579 655.9575,200.7886 654.1517,202.8232 652.3624,204.8781 650.5743,206.97 648.7726,209.1154 648.0249,342.1743 649.1781,343.9121 649.875,345.4036 650.0796,346.465 650.0247,347.0614 650.0896,347.4767 650.5939,348.2921 651.7939,349.4112 653.6532,350.8093 654.683,351.6243 655.9323,352.7078 656.6078,353.5152 656.7329,354.0169 657.6327,355.3115 658.7709,356.8129 659.02,357.4407 659.3403,358.2505 660.106,359.4366 661.114,360.5869 662.0247,361.1693 662.6562,361.3074 663.2622,361.2423 663.9946,361.076 664.2171,361.1373 664.5186,361.9767 664.7604,363.8604 664.9274,367.3269 665.7024,368.5475 666.4033,369.6511 667.0576,370.8499 667.2361,371.2328 667.6614,371.8239 668.407,373.072 669.3383,374.7422 670.1499,375.9713 670.9905,377.3168 671.7069,378.6063 672.395,379.7681 672.648,380.1922 673.2652,381.1675 673.7249,381.9727 673.9929,382.4098 674.2535,382.8321 675.7723,385.3305 677.203,387.7821 678.5553,390.208 679.8389,392.6295 681.0636,395.0676 682.2392,397.5436 683.3755,400.0786 684.4821,402.6936 685.5688,405.41 686.6455,408.2488 687.7219,411.2312 689.2323,415.6631 689.8145,417.2033 690.3876,418.7078 691.2025,420.9197 691.9413,422.6786 692.4697,423.9914 693.0741,425.5317 693.6473,427.1794 694.2293,428.9168 694.8115,430.8869 695.3279,432.6397 696.4293,436.4962 696.4829,593.4071 696.5367,750.3179 645.4397,750.3179 594.3426,750.3179 594.3964,593.4071 594.4501,436.496 594.8379,435.1382 595.0206,434.4988 595.1937,433.8929 595.3892,433.2078 595.6055,432.463 596.0532,430.8511 596.6577,428.8989 597.2354,427.1615 597.8084,425.5227 598.4084,423.9735 598.9379,422.6786 599.6084,421.0988 600.2084,419.4959 600.7279,418.063 601.2652,416.7018 601.7845,415.1974 602.767,412.3379 603.421,410.4586 604.0439,408.7142 604.6469,407.0778 605.2404,405.5231 605.8355,404.0233 606.4426,402.5521 607.0728,401.0827 607.7365,399.5887 608.4446,398.0434 609.2079,396.4203 610.3099,394.1705 611.2771,392.2003 612.2622,390.3376 613.2562,388.475 614.3398,386.6123 615.5577,384.5705 616.6258,382.8321 616.8864,382.4098 617.1544,381.9727 617.9578,380.666 619.1039,378.7317 619.8025,377.478 620.6924,376.0261 621.4816,374.8362 622.5898,372.8705 623.3124,371.6985 623.6779,371.1712 623.8217,370.85 624.4234,369.7406 625.952,367.3268 626.0922,364.1982 626.3339,362.1055 626.6231,361.1884 626.8785,361.0645 627.9442,361.3029 628.6779,361.2321 629.5507,360.7615 630.5141,359.7746 631.5948,358.1727 631.8629,357.4244 632.0648,356.8699 633.0294,355.5735 634.0091,354.2705 634.2379,353.6055 634.5926,353.0831 635.5077,352.2018 636.9249,351.0377 639.0864,349.4146 640.2855,348.2919 640.7331,347.598 640.8541,347.1364 640.8208,346.2167 641.1192,345.0904 641.8122,343.7313 642.8522,342.1765 644.2827,340.3932 645.3336,339.4172 645.7216,339.5305 646.7868,340.6183 702.4717,455.6555 703.4077,456.1837 704.804,457.3735 706.5576,459.1465 708.3452,461.2286 709.5495,463.1526 710.6935,465.3264 711.5458,467.1606 712.0897,468.4184 712.6176,469.7156 713.1253,471.0423 713.6091,472.389 714.0644,473.7461 714.4877,475.1038 715.2025,477.5615 716.0442,480.4004 716.6325,482.2518 717.14,484.3628 717.4018,486.5198 717.557,486.9777 717.6042,490.823 717.6265,495.4282 717.6472,501.6443 717.6664,509.3416 717.6838,518.3902 717.6991,528.6602 717.712,540.0219 717.7225,552.3454 717.7303,565.5009 717.7351,579.3586 717.7368,593.7887 717.7363,617.856 717.7344,638.0046 717.7292,654.5835 717.7201,667.9418 717.7051,678.4285 717.6834,686.3928 717.6533,692.1836 717.614,696.15 717.5635,698.641 717.42,700.6726 717.035,701.0439 717.2981,701.6461 717.1336,702.0723 716.6904,702.2841 714.9607,702.3824 713.3666,702.405 711.5594,702.4117 710.2144,702.4127 703.5919,702.4127 702.4716,700.2539 702.4716,577.9547 588.4077,455.6555 588.4077,577.9547 588.4077,700.2539 587.2874,702.4127 584.9553,702.4127 582.9941,702.4127 580.7398,702.4127 578.5189,702.4101 576.6383,702.396 574.7107,702.3367 573.826,702.1617 573.6456,701.901 573.5815,701.6502 573.8475,701.0804 573.5,700.699 573.3783,700.0059 573.3157,698.6411 573.2654,696.15 573.2259,692.1836 573.1959,686.3928 573.1742,678.4286 573.1593,667.9418 573.1501,654.5835 573.1451,638.0046 573.143,617.856 573.1426,593.7887 573.1442,579.3586 573.149,565.5009 573.1569,552.3454 573.1674,540.0219 573.1803,528.6602 573.1956,518.3902 573.2128,509.3416 573.2321,501.6443 573.2529,495.4282 573.275,490.823 573.3359,486.9707 573.548,486.0942 573.842,483.8498 574.3245,481.9966 574.8473,480.4272 575.2592,479.1018 575.6532,477.7406 575.9935,476.4511 576.3916,475.1038 576.8148,473.7461 577.2703,472.389 577.754,471.0423 578.2618,469.7156 578.7897,468.4184 579.3336,467.1606 580.1868,465.3264 581.332,463.1481 582.534,461.229 584.0532,459.4451 585.5027,457.927 587.2795,456.3183 645.4397,273.8091 647.6711,273.8152 649.6166,273.855 651.2241,273.9558 652.7308,274.1442 654.3875,274.4481 656.0736,274.8159 657.3125,275.0972 657.6829,275.1813 658.7935,275.4242 660.4055,275.7645 662.0084,276.0662 663.6136,276.5134 665.6711,277.3048 668.586,278.6067 669.5111,278.8395 670.0826,278.8031 671.6801,279.3824 673.1426,280.0405 673.9839,280.4325 674.9532,280.8911 676.7039,281.7287 678.7144,282.7407 680.0756,283.6519 681.8621,285.3109 683.3666,286.5645 684.5276,287.5115 685.5876,288.3556 686.6863,289.168 687.1151,289.489 687.5527,289.8179 687.9932,290.1505 688.431,290.4825 688.8603,290.8094 689.2757,291.127 689.6713,291.4308 690.0415,291.7167 690.3806,291.9803 690.4592,292.0451 692.6651,293.7977 692.6454,296.0982 692.6321,297.6493 692.6188,299.2003 692.6028,301.0769 692.5849,303.0779 692.5711,304.5518 692.5452,306.481 692.499,308.9705 692.4424,311.2093 692.3789,313.0989 692.2947,314.8115 692.0323,317.475 687.7484,317.475 682.9671,317.475 677.8541,317.475 672.5753,317.475 667.2964,317.475 662.1835,317.475 657.4021,317.475 653.1182,317.475 649.4977,317.475 646.7062,317.475 644.592,317.475 634.7533,317.4739 626.5504,317.4705 619.5714,317.4642 613.7217,317.4542 608.9072,317.4402 605.0336,317.4213 602.0065,317.3972 599.7316,317.3671 598.1145,317.3306 596.2614,317.2078 596.1468,315.2808 596.1011,313.2787 596.0655,310.7875 596.0408,307.9677 596.0273,304.9794 596.0253,301.9833 596.0353,299.1396 596.058,296.6089 596.0932,294.5513 596.1887,292.517 596.5302,292.063 597.9339,290.6302 599.4204,289.2959 600.6361,288.299 601.7219,287.6906 603.0204,287.1287 604.5118,286.4443 605.1115,286.1611 605.7503,285.8566 606.4203,285.535 607.1127,285.2 607.8195,284.8557 608.5322,284.506 609.2425,284.1549 611.1732,283.1997 612.8887,282.3577 614.4026,281.6229 615.7286,280.9891 617.5279,280.1705 619.1666,279.4407 620.7192,278.8943 621.8052,278.7268 622.9827,278.342 624.9562,277.4056 626.7697,276.6914 628.5181,276.1541 630.2443,275.8138 631.6674,275.516 632.0468,275.4348 632.8592,275.2809 633.5668,275.0972 634.8058,274.8159 636.5308,274.4437 638.1517,274.1448 639.6517,273.956 641.2637,273.855 643.2069,273.8152 " stroke="rgb(26,51,77)" stroke-width="1.5" stroke-linecap="round" fill="none" />

</g>  <!-- end Curve.009 -->

</g>

</svg>

