<svg xmlns="http://www.w3.org/2000/svg" xmlns:inkscape="http://www.inkscape.org/namespaces/inkscape" xmlns:xlink="http://www.w3.org/1999/xlink" width="1920px" height="1080px">

<g inkscape:groupmode="layer" id="Sun Mar 20 17:24:40 2022">

<g id="Simple_Curve.002">  <!-- start Simple_Curve.002 -->

  <path id="curva_3D.Simple_Curve.002" d="M 898.743,498.8085 L 898.743,498.8085 898.2205,495.6374 725.6532,752.8047 725.972,756.4156 726.5902,757.1845 739.621,757.3306 728.8666,486.1766 726.8107,492.9951 725.6774,498.8002 835.3916,351.1266 834.7953,347.7162 832.0731,347.9177 830.283,346.3643 825.6036,338.6535 818.733,332.7585 817.782,331.4074 817.647,329.3281 816.9391,327.5892 814.9279,324.5446 812.0749,321.736 807.8489,326.9129 806.7852,329.2249 806.5541,331.5529 805.0114,333.3694 798.7601,338.762 794.6445,345.7014 792.0108,347.9654 789.6218,347.8614 788.8167,355.2275 778.2596,372.8026 846.9681,373.7277 835.5871,355.2275 1033.0676,739.8012 1033.5468,740.6802 1033.7759,743.7217 936.4897,360.1469 940.1957,367.9014 861.2097,224.7199 859.8065,227.6673 865.0212,234.9597 1054.8605,67.6221 1054.9202,75.9994 1054.1223,78.2584 1037.134,80.6554 1027.019,82.6686 1055.2791,46.3533 1054.8325,56.7342 1045.7305,33.2554 1054.1473,33.5009 1055.2098,35.6755 1055.3975,41.41 569.5732,76.4623 569.5433,67.6221 575.5299,79.1052 570.2838,78.2523 581.4061,79.8924 577.2633,79.3467 686.8882,362.3268 688.4469,359.0042 898.3929,756.4152 898.5782,755.2425 752.4008,433.3909 751.0145,438.2308 868.004,421.6497 864.7422,413.188 1034.4852,813.286 1034.2864,818.1035 1033.7638,819.3281 948.506,820.0091 1010.0798,581.1336 1014.2775,601.4916 962.0862,423.2378 973.2872,453.9381 959.9868,417.6614 961.6581,422.0844 929.1456,344.0422 935.9573,359.0042 808.2024,165.3737 812.1849,170.0488 645.282,48.438 649.8192,50.2019 569.4243,54.1766 569.0435,36.3764 570.399,33.39 574.056,33.1508 597.3845,82.6686 586.3067,80.6554 757.9472,236.9276 764.5981,227.6789 763.2467,224.8058 667.236,410.1412 668.3031,407.2221 663.1351,421.0405 663.3359,419.6357 664.4166,417.6614 653.0371,448.7201 662.3176,423.2378 611.6865,593.7744 614.1754,581.8226 590.6287,743.7647 591.5302,736.3938 590.6287,819.899 589.9519,814.9924 896.9167,490.948 895.0597,484.5598 895.5735,757.2962 898.0466,757.1189 760.9949,409.2407 757.2151,419.7109 1034.0016,751.8244 1034.5181,764.9013 956.6365,408.694 958.2421,413.0364 688.9835,357.8469 690.5024,354.6423 590.2933,754.7474 590.5622,745.8925 889.1956,470.3286 886.5593,466.5499 881.8807,461.92 742.457,461.9829 736.6141,468.0604 777.8479,373.5557 776.4295,375.791 974.5842,50.2019 978.9751,48.5026 684.2077,367.9014 686.3759,363.2393 592.6521,35.0754 578.673,33.2554 572.1108,33.2198 570.0735,33.6573 569.0435,36.3764 568.9758,38.1727 569.6303,58.9479 569.4227,74.8417 570.2838,78.2523 595.355,82.2109 604.2358,84.609 613.12,87.8274 625.9213,93.9133 647.4359,105.3013 656.1023,110.4172 666.8688,117.9838 678.5917,127.4641 691.0886,138.7085 704.6362,152.0317 718.7092,167.0671 732.2717,182.8927 745.7377,199.9984 758.8471,218.0125 763.2467,224.8058 764.5981,227.6789 746.1619,253.8202 728.7032,281.1364 710.5824,313.0963 696.7265,340.8807 680.2301,376.5938 672.8448,394.6769 647.2067,464.9069 638.1652,491.938 631.903,512.3778 621.3297,551.3348 612.7241,588.7433 605.8009,624.9715 599.165,669.1647 594.2452,708.8876 591.3619,739.3332 590.7426,741.606 589.7976,778.5965 589.9519,814.9924 590.6287,819.899 805.132,820.2348 1033.7952,819.8192 1034.2864,818.1035 1034.4852,813.286 1034.6085,782.3689 1034.4845,763.1195 1033.7759,743.7217 1033.6064,741.0099 1033.0676,739.8012 1029.7355,705.1388 1025.2384,669.1647 1018.6025,624.9715 1011.4059,587.4153 1003.7181,553.8986 992.2161,511.4544 978.0861,467.4274 951.5587,394.6769 944.1741,376.5938 929.1456,344.0422 912.9808,311.5207 899.6687,287.7887 880.108,256.6146 859.8065,227.6673 861.2097,224.7199 865.5567,218.0125 878.6661,199.9984 892.1318,182.8927 905.6943,167.067 919.7672,152.0317 933.3153,138.7085 945.8121,127.4641 957.5346,117.9838 968.3016,110.4172 976.968,105.3013 998.4825,93.9133 1011.2834,87.8274 1020.168,84.609 1028.5542,82.317 1054.1223,78.2584 1054.9614,75.4999 1054.7731,58.9587 1055.4277,38.674 1055.3475,36.3969 1054.1473,33.5009 1047.3958,33.1602 1028.9664,35.5568 1002.3644,41.2916 983.4752,46.9839 969.1206,52.4213 952.6238,59.6531 929.9068,71.1826 915.2704,79.639 901.0368,88.7131 887.2048,98.4064 868.3099,113.1809 855.4504,124.4287 839.2603,140.1312 827.0284,152.9447 812.1849,170.0488 799.5803,155.3816 790.3504,145.4619 776.7845,131.8392 763.863,119.8386 750.633,108.7206 737.1991,98.4064 723.3666,88.713 709.1337,79.639 694.497,71.1826 679.4546,63.3425 664.0034,56.117 647.5172,49.2763 633.9869,44.7243 622.0394,41.2916 595.4371,35.5568 817.7699,330.1933 817.782,331.4074 818.387,332.3857 825.6036,338.6535 828.8828,344.3359 831.0114,347.1395 832.0731,347.9177 834.4678,347.7266 835.0963,348.8074 835.5871,355.2275 846.9681,373.7277 853.4811,385.5907 857.7249,394.5296 869.3633,425.0733 873.3893,438.2307 873.5182,814.8168 750.8852,814.8168 751.0145,438.2308 755.0446,425.0626 765.4055,397.4977 773.5818,380.6053 788.8167,355.2275 789.6218,347.8614 792.0108,347.9654 794.2913,346.1648 799.1855,338.135 806.0168,332.3856 807.8489,326.9129 812.0749,321.736 815.3041,325.0444 817.5241,328.9197 732.2217,476.5374 736.6141,468.0604 740.2775,463.9478 743.7634,461.2219 743.7634,754.74 742.4192,757.3306 727.3272,757.2394 726.0491,756.7165 726.2915,755.7318 725.8744,755.2741 725.6532,752.8047 725.6774,498.8002 726.8107,492.9951 731.5884,478.094 895.9173,487.5092 898.2205,495.6374 898.743,498.8085 898.7994,503.4229 898.7506,752.8046 898.5782,755.2425 898.1161,755.688 898.3929,756.4152 897.7028,757.1763 881.9846,757.3306 880.64,754.7399 880.6404,461.2219 885.5436,465.4111 889.1956,470.3286 892.1821,476.5374 895.0597,484.5598 " stroke="rgb(26,51,77)" stroke-width="1.5" stroke-linecap="round" fill="none" />

</g>  <!-- end Simple_Curve.002 -->

</g>

</svg>

