# Blender v2.78 (sub 0) OBJ File: ''
# www.blender.org
mtllib sphere_inverted.mtl
o Sphere
v 0.000000 0.923880 -0.382683
v 0.000000 0.707107 -0.707107
v 0.000000 0.382683 -0.923880
v 0.000000 -0.000000 -1.000000
v 0.000000 -0.382684 -0.923880
v 0.000000 -0.707107 -0.707107
v 0.000000 -0.923880 -0.382683
v 0.146447 0.923880 -0.353553
v 0.270598 0.707107 -0.653281
v 0.353553 0.382683 -0.853553
v 0.382683 -0.000000 -0.923880
v 0.353553 -0.382684 -0.853553
v 0.270598 -0.707107 -0.653281
v 0.146447 -0.923880 -0.353553
v 0.270598 0.923880 -0.270598
v 0.500000 0.707107 -0.500000
v 0.653281 0.382683 -0.653281
v 0.707107 -0.000000 -0.707107
v 0.653281 -0.382684 -0.653281
v 0.500000 -0.707107 -0.500000
v 0.270598 -0.923880 -0.270598
v -0.000000 1.000000 -0.000000
v 0.353553 0.923880 -0.146447
v 0.653281 0.707107 -0.270598
v 0.853553 0.382683 -0.353553
v 0.923879 -0.000000 -0.382683
v 0.853553 -0.382684 -0.353553
v 0.653281 -0.707107 -0.270598
v 0.353553 -0.923880 -0.146447
v 0.382683 0.923880 -0.000000
v 0.707107 0.707107 -0.000000
v 0.923879 0.382683 -0.000000
v 1.000000 -0.000000 -0.000000
v 0.923879 -0.382684 -0.000000
v 0.707107 -0.707107 -0.000000
v 0.382683 -0.923880 -0.000000
v 0.353553 0.923880 0.146446
v 0.653281 0.707107 0.270598
v 0.853553 0.382683 0.353553
v 0.923879 -0.000000 0.382683
v 0.853553 -0.382684 0.353553
v 0.653281 -0.707107 0.270598
v 0.353553 -0.923880 0.146446
v 0.270598 0.923880 0.270598
v 0.500000 0.707107 0.500000
v 0.653281 0.382683 0.653281
v 0.707106 -0.000000 0.707107
v 0.653281 -0.382684 0.653281
v 0.500000 -0.707107 0.500000
v 0.270598 -0.923880 0.270598
v 0.146446 0.923880 0.353553
v 0.270598 0.707107 0.653281
v 0.353553 0.382683 0.853553
v 0.382683 -0.000000 0.923879
v 0.353553 -0.382684 0.853553
v 0.270598 -0.707107 0.653281
v 0.146446 -0.923880 0.353553
v -0.000000 0.923880 0.382683
v -0.000000 0.707107 0.707106
v -0.000000 0.382683 0.923879
v -0.000000 -0.000000 1.000000
v -0.000000 -0.382684 0.923879
v -0.000000 -0.707107 0.707106
v -0.000000 -0.923880 0.382683
v -0.146447 0.923880 0.353553
v -0.270598 0.707107 0.653281
v -0.353554 0.382683 0.853553
v -0.382684 -0.000000 0.923879
v -0.353554 -0.382684 0.853553
v -0.270598 -0.707107 0.653281
v -0.146447 -0.923880 0.353553
v -0.270598 0.923880 0.270598
v -0.500000 0.707107 0.499999
v -0.653282 0.382683 0.653281
v -0.707107 -0.000000 0.707106
v -0.653282 -0.382684 0.653281
v -0.500000 -0.707107 0.499999
v -0.270598 -0.923880 0.270598
v -0.353553 0.923880 0.146446
v -0.653281 0.707107 0.270597
v -0.853553 0.382683 0.353553
v -0.923879 -0.000000 0.382683
v -0.853553 -0.382684 0.353553
v -0.653281 -0.707107 0.270597
v -0.353553 -0.923880 0.146446
v -0.382683 0.923880 -0.000000
v -0.707106 0.707107 -0.000000
v -0.923879 0.382683 -0.000001
v -1.000000 -0.000000 -0.000001
v -0.923879 -0.382684 -0.000001
v -0.707106 -0.707107 -0.000000
v -0.382683 -0.923880 -0.000000
v -0.353553 0.923880 -0.146447
v -0.653281 0.707107 -0.270598
v -0.853553 0.382683 -0.353554
v -0.923879 -0.000000 -0.382684
v -0.853553 -0.382684 -0.353554
v -0.653281 -0.707107 -0.270598
v -0.353553 -0.923880 -0.146447
v -0.270598 0.923880 -0.270598
v -0.499999 0.707107 -0.500000
v -0.653281 0.382683 -0.653282
v -0.707106 -0.000000 -0.707107
v -0.653281 -0.382684 -0.653282
v -0.499999 -0.707107 -0.500000
v -0.270598 -0.923880 -0.270598
v -0.146446 0.923880 -0.353553
v -0.270598 0.707107 -0.653281
v -0.353553 0.382683 -0.853553
v -0.382683 -0.000000 -0.923880
v -0.353553 -0.382684 -0.853553
v -0.270598 -0.707107 -0.653281
v -0.146446 -0.923880 -0.353553
v 0.000000 -1.000000 -0.000000
vn 0.0000 1.0000 0.0000
vn -0.1542 0.9152 0.3724
vn 0.0000 0.9152 0.4031
vn 0.0000 0.6952 0.7188
vn -0.2751 0.6952 0.6641
vn -0.3548 0.3743 0.8567
vn 0.0000 0.3743 0.9273
vn 0.0000 0.0000 1.0000
vn -0.3827 0.0000 0.9239
vn -0.3548 -0.3743 0.8567
vn 0.0000 -0.3743 0.9273
vn 0.0000 -0.6952 0.7188
vn -0.2751 -0.6952 0.6641
vn -0.1542 -0.9152 0.3724
vn 0.0000 -0.9152 0.4031
vn 0.0000 -1.0000 0.0000
vn -0.2850 0.9152 0.2850
vn -0.5083 0.6952 0.5083
vn -0.6557 0.3743 0.6557
vn -0.7071 0.0000 0.7071
vn -0.6557 -0.3743 0.6557
vn -0.5083 -0.6952 0.5083
vn -0.2850 -0.9152 0.2850
vn -0.8567 0.3743 0.3548
vn -0.9239 0.0000 0.3827
vn -0.8567 -0.3743 0.3548
vn -0.6641 -0.6952 0.2751
vn -0.3724 -0.9152 0.1542
vn -0.3724 0.9152 0.1542
vn -0.6641 0.6952 0.2751
vn -0.4031 0.9152 0.0000
vn -0.7188 0.6952 0.0000
vn -0.9273 0.3743 0.0000
vn -1.0000 0.0000 0.0000
vn -0.9273 -0.3743 0.0000
vn -0.7188 -0.6952 0.0000
vn -0.4031 -0.9152 0.0000
vn -0.9239 0.0000 -0.3827
vn -0.8567 -0.3743 -0.3548
vn -0.6641 -0.6952 -0.2751
vn -0.3724 -0.9152 -0.1542
vn -0.3724 0.9152 -0.1542
vn -0.6641 0.6952 -0.2751
vn -0.8567 0.3743 -0.3548
vn -0.2850 0.9152 -0.2850
vn -0.5083 0.6952 -0.5083
vn -0.6557 0.3743 -0.6557
vn -0.7071 0.0000 -0.7071
vn -0.6557 -0.3743 -0.6557
vn -0.5083 -0.6952 -0.5083
vn -0.2850 -0.9152 -0.2850
vn -0.3548 -0.3743 -0.8567
vn -0.2751 -0.6952 -0.6641
vn -0.1542 -0.9152 -0.3724
vn -0.1542 0.9152 -0.3724
vn -0.2751 0.6952 -0.6641
vn -0.3548 0.3743 -0.8567
vn -0.3827 0.0000 -0.9239
vn 0.0000 0.9152 -0.4031
vn 0.0000 0.6952 -0.7188
vn 0.0000 0.3743 -0.9273
vn 0.0000 0.0000 -1.0000
vn 0.0000 -0.3743 -0.9273
vn 0.0000 -0.6952 -0.7188
vn 0.0000 -0.9152 -0.4031
vn 0.2751 -0.6952 -0.6641
vn 0.1542 -0.9152 -0.3724
vn 0.1542 0.9152 -0.3724
vn 0.2751 0.6952 -0.6641
vn 0.3548 0.3743 -0.8567
vn 0.3827 0.0000 -0.9239
vn 0.3548 -0.3743 -0.8567
vn 0.2850 0.9152 -0.2850
vn 0.5083 0.6952 -0.5083
vn 0.6557 0.3743 -0.6557
vn 0.7071 0.0000 -0.7071
vn 0.6557 -0.3743 -0.6557
vn 0.5083 -0.6952 -0.5083
vn 0.2850 -0.9152 -0.2850
vn 0.3724 -0.9152 -0.1542
vn 0.3724 0.9152 -0.1542
vn 0.6641 0.6952 -0.2751
vn 0.8567 0.3743 -0.3548
vn 0.9239 0.0000 -0.3827
vn 0.8567 -0.3743 -0.3548
vn 0.6641 -0.6952 -0.2751
vn 0.7188 0.6952 0.0000
vn 0.9273 0.3743 0.0000
vn 1.0000 0.0000 0.0000
vn 0.9273 -0.3743 0.0000
vn 0.7188 -0.6952 0.0000
vn 0.4031 -0.9152 0.0000
vn 0.4031 0.9152 0.0000
vn 0.3724 0.9152 0.1542
vn 0.6641 0.6952 0.2751
vn 0.8567 0.3743 0.3548
vn 0.9239 0.0000 0.3827
vn 0.8567 -0.3743 0.3548
vn 0.6641 -0.6952 0.2751
vn 0.3724 -0.9152 0.1542
vn 0.6557 0.3743 0.6557
vn 0.7071 0.0000 0.7071
vn 0.6557 -0.3743 0.6557
vn 0.5083 -0.6952 0.5083
vn 0.2850 -0.9152 0.2850
vn 0.2850 0.9152 0.2850
vn 0.5083 0.6952 0.5083
vn 0.1542 0.9152 0.3724
vn 0.2751 0.6952 0.6641
vn 0.3548 0.3743 0.8567
vn 0.3827 0.0000 0.9239
vn 0.3548 -0.3743 0.8567
vn 0.2751 -0.6952 0.6641
vn 0.1542 -0.9152 0.3724
usemtl None
s 1
f 114//1 14//2 7//3
f 6//4 13//5 12//6 5//7
f 4//8 11//9 10//10 3//11
f 2//12 9//13 8//14 1//15
f 7//3 14//2 13//5 6//4
f 5//7 12//6 11//9 4//8
f 3//11 10//10 9//13 2//12
f 1//15 8//14 22//16
f 14//2 21//17 20//18 13//5
f 12//6 19//19 18//20 11//9
f 10//10 17//21 16//22 9//13
f 8//14 15//23 22//16
f 114//1 21//17 14//2
f 13//5 20//18 19//19 12//6
f 11//9 18//20 17//21 10//10
f 9//13 16//22 15//23 8//14
f 19//19 27//24 26//25 18//20
f 17//21 25//26 24//27 16//22
f 15//23 23//28 22//16
f 114//1 29//29 21//17
f 20//18 28//30 27//24 19//19
f 18//20 26//25 25//26 17//21
f 16//22 24//27 23//28 15//23
f 21//17 29//29 28//30 20//18
f 114//1 36//31 29//29
f 28//30 35//32 34//33 27//24
f 26//25 33//34 32//35 25//26
f 24//27 31//36 30//37 23//28
f 29//29 36//31 35//32 28//30
f 27//24 34//33 33//34 26//25
f 25//26 32//35 31//36 24//27
f 23//28 30//37 22//16
f 33//34 40//38 39//39 32//35
f 31//36 38//40 37//41 30//37
f 36//31 43//42 42//43 35//32
f 34//33 41//44 40//38 33//34
f 32//35 39//39 38//40 31//36
f 30//37 37//41 22//16
f 114//1 43//42 36//31
f 35//32 42//43 41//44 34//33
f 43//42 50//45 49//46 42//43
f 41//44 48//47 47//48 40//38
f 39//39 46//49 45//50 38//40
f 37//41 44//51 22//16
f 114//1 50//45 43//42
f 42//43 49//46 48//47 41//44
f 40//38 47//48 46//49 39//39
f 38//40 45//50 44//51 37//41
f 46//49 53//52 52//53 45//50
f 44//51 51//54 22//16
f 114//1 57//55 50//45
f 49//46 56//56 55//57 48//47
f 47//48 54//58 53//52 46//49
f 45//50 52//53 51//54 44//51
f 50//45 57//55 56//56 49//46
f 48//47 55//57 54//58 47//48
f 114//1 64//59 57//55
f 56//56 63//60 62//61 55//57
f 54//58 61//62 60//63 53//52
f 52//53 59//64 58//65 51//54
f 57//55 64//59 63//60 56//56
f 55//57 62//61 61//62 54//58
f 53//52 60//63 59//64 52//53
f 51//54 58//65 22//16
f 59//64 66//66 65//67 58//65
f 64//59 71//68 70//69 63//60
f 62//61 69//70 68//71 61//62
f 60//63 67//72 66//66 59//64
f 58//65 65//67 22//16
f 114//1 71//68 64//59
f 63//60 70//69 69//70 62//61
f 61//62 68//71 67//72 60//63
f 71//68 78//73 77//74 70//69
f 69//70 76//75 75//76 68//71
f 67//72 74//77 73//78 66//66
f 65//67 72//79 22//16
f 114//1 78//73 71//68
f 70//69 77//74 76//75 69//70
f 68//71 75//76 74//77 67//72
f 66//66 73//78 72//79 65//67
f 72//79 79//80 22//16
f 114//1 85//81 78//73
f 77//74 84//82 83//83 76//75
f 75//76 82//84 81//85 74//77
f 73//78 80//86 79//80 72//79
f 78//73 85//81 84//82 77//74
f 76//75 83//83 82//84 75//76
f 74//77 81//85 80//86 73//78
f 84//82 91//87 90//88 83//83
f 82//84 89//89 88//90 81//85
f 80//86 87//91 86//92 79//80
f 85//81 92//93 91//87 84//82
f 83//83 90//88 89//89 82//84
f 81//85 88//90 87//91 80//86
f 79//80 86//92 22//16
f 114//1 92//93 85//81
f 92//93 99//94 98//95 91//87
f 90//88 97//96 96//97 89//89
f 88//90 95//98 94//99 87//91
f 86//92 93//100 22//16
f 114//1 99//94 92//93
f 91//87 98//95 97//96 90//88
f 89//89 96//97 95//98 88//90
f 87//91 94//99 93//100 86//92
f 97//96 104//101 103//102 96//97
f 95//98 102//103 101//104 94//99
f 93//100 100//105 22//16
f 114//1 106//106 99//94
f 98//95 105//107 104//101 97//96
f 96//97 103//102 102//103 95//98
f 94//99 101//104 100//105 93//100
f 99//94 106//106 105//107 98//95
f 114//1 113//108 106//106
f 105//107 112//109 111//110 104//101
f 103//102 110//111 109//112 102//103
f 101//104 108//113 107//114 100//105
f 106//106 113//108 112//109 105//107
f 104//101 111//110 110//111 103//102
f 102//103 109//112 108//113 101//104
f 100//105 107//114 22//16
f 110//111 4//8 3//11 109//112
f 108//113 2//12 1//15 107//114
f 113//108 7//3 6//4 112//109
f 111//110 5//7 4//8 110//111
f 109//112 3//11 2//12 108//113
f 107//114 1//15 22//16
f 114//1 7//3 113//108
f 112//109 6//4 5//7 111//110
