<?xml version="1.0" encoding="utf-8"?>
<!-- Generator: Adobe Illustrator 26.0.1, SVG Export Plug-In . SVG Version: 6.00 Build 0)  -->
<svg version="1.1" id="Layer_1" xmlns="http://www.w3.org/2000/svg" xmlns:xlink="http://www.w3.org/1999/xlink" x="0px" y="0px"
	 viewBox="0 0 1024 1024" style="enable-background:new 0 0 1024 1024;" xml:space="preserve">
<path d="M1018.2,513.4c0-0.1,0-0.2,0.1-0.2c0.5-1.1,0.5-2.3,0.1-3.4L871.1,155c0,0,0,0,0,0c-0.1-0.3-0.3-0.6-0.5-0.8
	c-0.1-0.1-0.1-0.2-0.2-0.2c-0.1-0.2-0.3-0.3-0.5-0.5c-0.1-0.1-0.2-0.1-0.3-0.2c-0.2-0.1-0.4-0.2-0.6-0.4c-0.1,0-0.2-0.1-0.3-0.1
	c0,0-0.1,0-0.1-0.1L515.2,6.2c-0.6-0.4-1.3-0.7-2.1-0.8c-0.9-0.2-1.8-0.2-2.7,0.2L155.4,152.6c0,0,0,0,0,0l0,0
	c-0.1,0-0.1,0.1-0.2,0.1c-0.2,0.1-0.4,0.2-0.5,0.3c-0.2,0.2-0.5,0.3-0.7,0.5c0,0,0,0,0,0c0,0,0,0,0,0c-0.2,0.2-0.4,0.4-0.5,0.6
	c-0.1,0.2-0.2,0.4-0.3,0.5c0,0.1-0.1,0.1-0.1,0.2l0,0c0,0,0,0,0,0L6.7,508.2c-0.8,0.8-1.4,1.9-1.4,3.1c0,0.9,0.3,1.8,0.8,2.5
	L153,868.5c0.1,0.3,0.3,0.6,0.5,0.9c0.1,0.2,0.3,0.4,0.5,0.6c0,0,0,0,0,0c0.1,0.1,0.2,0.1,0.2,0.2c0.1,0.1,0.3,0.2,0.4,0.3
	c0.2,0.1,0.3,0.2,0.5,0.3c0.1,0,0.2,0.1,0.3,0.1l0,0c0,0,0,0,0,0l354.4,146.8c0.8,0.7,1.8,1.1,2.9,1.1c1.5,0,2.8-0.8,3.6-1.9
	l352.5-146c0,0,0,0,0,0l0,0c0.1,0,0.2-0.1,0.3-0.2c0.1-0.1,0.3-0.1,0.4-0.2c0.5-0.3,0.9-0.7,1.2-1.2c0.1-0.1,0.2-0.3,0.2-0.4
	c0.1-0.1,0.1-0.2,0.2-0.3l0,0c0,0,0,0,0,0L1018.2,513.4z M16.2,515.7h21.5c0.3,0.3,0.5,0.5,0.9,0.7c0.6,0.4,1.2,0.8,1.8,1.1
	c8.5,6.2,17.2,12.1,26,17.6c43.4,32.6,76.5,74.5,96.5,122.8c19.1,46.2,25.7,96.7,19.6,148c-2.9,11.9-5.4,24-7.3,36.4
	c-0.3,0.2-0.6,0.4-0.9,0.7l-15.8,16.1L16.2,515.7z M158.5,164.2l14.5,14.5c0,0.2,0,0.4,0,0.6c0.1,1.4,0.9,2.6,2.1,3.3
	c1.9,12.3,4.4,24.4,7.3,36.3c6.2,51.3-0.4,101.9-19.5,148.1c-20,48.3-53,90.2-96.4,122.8c-8.7,5.4-17.2,11.2-25.6,17.3H16.5
	L158.5,164.2z M1007.7,507.1h-24.4c-8.4-6.1-16.9-11.9-25.6-17.3c-43.4-32.6-76.4-74.5-96.4-122.8c-19.1-46.2-25.7-96.8-19.5-148.1
	c3-12.2,5.5-24.7,7.5-37.3c0.4-0.4,0.6-1,0.8-1.5c0-0.1,0-0.1,0-0.2l15.6-15.6L1007.7,507.1z M967.2,507.1H556.7
	c52.1-13.4,99.8-36,141.1-67.1c16.5-2.2,33.2-3.4,49.9-3.4c71.6,0,141.9,20.8,205.2,60.3C957.5,500.4,962.3,503.8,967.2,507.1z
	 M190.9,807.6c17.3-70.1,51.8-132.3,100.9-181.4c11.9-11.9,24.6-22.9,37.9-33.1c51.1-7.2,100.7-24.8,146.9-52.1L187.3,830.4
	C188.8,822.8,190,815.2,190.9,807.6z M833.3,217.2c-17.3,70.2-51.8,132.3-100.9,181.5c-11.9,11.9-24.6,22.9-37.9,33.1
	c-52.4,7.4-103.3,25.7-150.5,54.2l293.3-293.3C835.6,200.9,834.3,209.1,833.3,217.2z M678.7,443.1c-43.2,29.4-92.9,50.1-146.9,60.8
	C577.5,473.4,627.2,452.8,678.7,443.1z M345.5,581.8c43.2-29.4,92.9-50.1,146.9-60.8C446.6,551.6,396.9,572.1,345.5,581.8z
	 M747.7,428c-12.4,0-24.7,0.6-36.9,1.8c9.6-7.9,18.8-16.2,27.6-25c41.6-41.6,72.8-92.2,92.4-149c0,39.7,7.5,78.3,22.5,114.5
	c15.3,36.9,37.9,70.1,66.8,98.5C865.6,442,807.1,428,747.7,428z M831.1,186.6L539.6,478.1c28.1-47.1,46.1-97.7,53.3-149.9
	c9.9-12.9,20.6-25.2,32.2-36.7c49.2-49.2,111.3-83.6,181.5-100.9C814.7,189.5,822.9,188.2,831.1,186.6z M519.6,493.6
	c10.8-55.2,31.8-106,62.1-150C572,396.1,551,446.9,519.6,493.6z M619,285.4c-8.5,8.5-16.6,17.4-24.2,26.6
	c1.1-11.9,1.7-23.9,1.7-35.9c0-58.9-13.7-116.8-40.1-170.9c28.1,28.2,60.8,50.3,97.1,65.3c36.1,15,74.8,22.5,114.5,22.5
	C711.2,212.5,660.5,243.8,619,285.4z M587.9,276.1c0,16.3-1.1,32.6-3.2,48.7c-31.3,41.3-54.2,89.1-67.7,141.3V57
	c4.3,6.5,8.9,12.8,13.6,18.8C568.2,137.8,587.9,206.4,587.9,276.1z M508.4,53.7v417.2c-13.4-54-36.7-103.4-68.9-146
	c-2.1-16.1-3.2-32.4-3.2-48.7c0-72.5,21.3-143.7,61.9-207.7C501.6,63.6,505.1,58.7,508.4,53.7z M504.6,493.6
	c-31.4-46.7-52.4-97.4-62.1-150C472.7,387.6,493.8,438.4,504.6,493.6z M427.6,276.1c0,12,0.6,24,1.7,35.9
	c-7.6-9.2-15.7-18.1-24.2-26.6c-41.6-41.6-92.2-72.8-149-92.4c39.3-0.1,77.7-7.6,113.5-22.5c37.1-15.4,70.6-38.2,99.1-67.4
	C441.7,157.8,427.6,216.5,427.6,276.1z M399.1,291.5c11.5,11.5,22.3,23.8,32.2,36.7c7.2,52.1,25.2,102.8,53.3,149.9L193.3,186.8
	c8.4,1.6,16.8,3,25.2,3.9C288.3,208.2,350.1,242.5,399.1,291.5z M186.9,192.7L480.2,486c-47.2-28.5-98.1-46.8-150.5-54.2
	c-13.3-10.1-26-21.2-37.9-33.1c-49.2-49.2-83.6-111.3-100.9-181.5C189.9,209.1,188.6,200.9,186.9,192.7z M492.4,503.9
	c-54-10.7-103.7-31.4-146.9-60.8C396.9,452.8,446.6,473.4,492.4,503.9z M285.7,404.8c8.8,8.8,18,17.1,27.6,25
	c-12.2-1.2-24.6-1.8-36.9-1.8c-59.4,0-117.9,14-172.4,40.8c28.9-28.4,51.5-61.6,66.8-98.5c15-36.2,22.5-74.9,22.4-114.5
	C212.9,312.6,244.2,363.2,285.7,404.8z M276.4,436.6c16.7,0,33.4,1.2,49.9,3.4c41.3,31,89,53.7,141.1,67.1H57
	c4.9-3.3,9.7-6.7,14.3-10.1C134.6,457.4,204.9,436.6,276.4,436.6z M53.7,515.7h422.5c-55.5,13-106.3,36.5-149.9,69.2
	c-16.5,2.2-33.2,3.4-49.9,3.4c-71.6,0-142-20.8-205.3-60.4C65.5,523.7,59.7,519.6,53.7,515.7z M276.4,596.9
	c12.4,0,24.7-0.6,36.9-1.8c-9.6,7.9-18.8,16.2-27.6,25c-41.6,41.6-72.9,92.2-92.4,149c0-39.7-7.5-78.4-22.4-114.5
	c-15.3-36.9-37.9-70.1-66.8-98.5C158.6,582.9,217.1,596.9,276.4,596.9z M191.5,838.4l295.3-295.3c-29.3,48.1-48.1,100.1-55.5,153.5
	c-9.9,12.9-20.6,25.2-32.2,36.8c-49,49-110.8,83.3-180.7,100.7C209.5,835.2,200.5,836.6,191.5,838.4z M504.6,531.3
	c-10.8,55.2-31.8,106-62.1,150C452.1,628.8,473.1,578,504.6,531.3z M405.2,739.5c8.5-8.5,16.6-17.4,24.2-26.6
	c-1.1,11.9-1.7,23.9-1.7,35.9c0,59.6,14.1,118.3,41.1,173c-28.5-29.2-62-52-99.1-67.4c-35.8-14.8-74.2-22.4-113.5-22.4
	C312.9,812.4,363.6,781.1,405.2,739.5z M436.2,748.8c0-16.3,1.1-32.6,3.2-48.7c32.2-42.6,55.5-92,68.9-146v417.2
	c-3.3-5-6.7-10-10.3-14.8C457.5,892.5,436.2,821.3,436.2,748.8z M517,968V558.8c13.5,52.2,36.4,100,67.7,141.3
	c2.1,16.1,3.2,32.4,3.2,48.7c0,69.7-19.7,138.3-57.3,200.3C525.9,955.2,521.3,961.5,517,968z M519.6,531.3
	c31.4,46.7,52.4,97.4,62.1,150C551.4,637.3,530.4,586.5,519.6,531.3z M596.5,748.8c0-12-0.6-24-1.7-35.9
	c7.6,9.2,15.7,18.1,24.2,26.6c41.6,41.6,92.2,72.9,149,92.4c-39.7,0-78.4,7.5-114.5,22.4c-36.2,15-69,37.1-97.1,65.3
	C582.8,865.7,596.5,807.7,596.5,748.8z M625.1,733.4c-11.5-11.6-22.3-23.8-32.2-36.8c-7.4-53.5-26.2-105.4-55.5-153.5l295.5,295.5
	c-8.8-1.8-17.6-3.2-26.3-4.3C736.4,817.1,674.2,782.6,625.1,733.4z M836.8,830.4L547.5,541.1c46.2,27.2,95.9,44.8,146.9,52.1
	c13.3,10.1,26,21.2,37.9,33.1c49.2,49.2,83.6,111.3,100.9,181.5C834.2,815.3,835.4,822.8,836.8,830.4z M531.7,521
	c54,10.7,103.7,31.4,146.9,60.8C627.2,572.1,577.5,551.6,531.7,521z M738.4,620.1c-8.8-8.8-18-17.1-27.6-25
	c12.2,1.2,24.6,1.8,36.9,1.8c59.4,0,117.9-14,172.4-40.8c-28.9,28.4-51.5,61.6-66.8,98.5c-15,36.2-22.5,74.9-22.4,114.5
	C811.3,712.3,780,661.7,738.4,620.1z M747.7,588.3c-16.7,0-33.4-1.2-49.9-3.4c-43.6-32.8-94.4-56.2-149.9-69.2h422.5
	c-6,3.9-11.8,8-17.4,12.2C889.7,567.5,819.3,588.3,747.7,588.3z M843.9,173.8c-0.1,0-0.1,0-0.2,0c-0.6,0.2-1.1,0.4-1.5,0.8
	c-12.7,2-25.1,4.5-37.3,7.5c-51.3,6.2-101.9-0.4-148.1-19.5c-46.5-19.3-87.1-50.6-119.1-91.6c-6.4-10.5-13.3-20.9-20.7-31V16.3
	l342.6,141.9L843.9,173.8z M508.4,37.6c-0.2,0.2-0.4,0.4-0.5,0.6c-0.9,1.5-1.8,2.9-2.7,4.4c-4.9,6.9-9.6,13.8-14.1,20.9
	c-32.8,44.7-75.5,78.6-124.7,99c-45.6,18.9-95.5,25.6-146.2,19.8c-12.5-3.1-25.3-5.7-38.3-7.7c-0.3-0.2-0.5-0.4-0.8-0.5
	c-0.3-0.1-0.6-0.2-0.9-0.3l-15.6-15.6L508.4,15.8V37.6z M178.7,851.2c1.2,0.2,2.3-0.2,3.2-0.9c13-2,25.7-4.6,38.3-7.7
	c50.7-5.8,100.5,0.9,146.2,19.8c49.2,20.4,91.9,54.4,124.7,99c4.5,7,9.2,14,14.1,20.9c0.9,1.5,1.8,2.9,2.7,4.4
	c0.1,0.2,0.3,0.4,0.5,0.6v20.4L164.6,865.3L178.7,851.2z M517,985c7.4-10.1,14.3-20.5,20.7-31c32-41,72.6-72.4,119.1-91.6
	c46.2-19.1,96.8-25.7,148.1-19.5c12.2,3,24.7,5.5,37.3,7.5c0.4,0.4,1,0.6,1.5,0.8c0.6,0.2,1.1,0.2,1.7,0.1l14.1,14.1L517,1007.2V985
	z M849.1,842.6c-2-12.4-4.4-24.6-7.3-36.6c-6.2-51.3,0.4-101.9,19.5-148.1c20-48.3,53.1-90.3,96.5-122.8c8.8-5.5,17.5-11.4,26-17.6
	c0.6-0.4,1.2-0.8,1.8-1.1c0.3-0.2,0.6-0.4,0.9-0.7h21.5L865.6,859.2L849.1,842.6z"/>
</svg>
